<svg width="127" height="100" viewBox="0 0 127 100" fill="none" xmlns="http://www.w3.org/2000/svg">
    <path
        d="M-11.3683 97.4585C-12.979 96.5286 -14.1543 94.9969 -14.6357 93.2003C-15.1171 91.4038 -14.8651 89.4896 -13.9351 87.8789L24.6351 21.0733C25.565 19.4626 27.0967 18.2873 28.8933 17.8059C30.6898 17.3245 32.604 17.5765 34.2147 18.5065L88.8738 50.0639C90.4845 50.9939 91.6598 52.5256 92.1412 54.3221C92.6226 56.1187 92.3706 58.0328 91.4406 59.6435"
        stroke="#89CFD9" />
    <g filter="url(#filter0_d_147_380)">
        <path
            d="M37.1728 69.9402C36.1752 71.668 35.7125 73.6527 35.8429 75.6435C35.9734 77.6342 36.6913 79.5416 37.9058 81.1244C39.1203 82.7071 40.7769 83.8942 42.666 84.5355C44.5552 85.1768 46.5921 85.2435 48.5191 84.7271C50.4462 84.2108 52.1768 83.1346 53.4923 81.6346C54.8077 80.1347 55.6488 78.2783 55.9092 76.3004C56.1696 74.3224 55.8376 72.3116 54.9552 70.5224C54.0728 68.7331 52.6797 67.2456 50.9519 66.2481C48.6351 64.9105 45.8818 64.548 43.2977 65.2404C40.7136 65.9328 38.5104 67.6234 37.1728 69.9402ZM29.0083 30.2838L-7.97762 94.3453C-8.86937 95.8898 -9.11102 97.7254 -8.64942 99.4481C-8.18782 101.171 -7.06076 102.64 -5.5162 103.531L46.8977 133.793C48.4423 134.684 50.2778 134.926 52.0005 134.464C53.7233 134.003 55.1921 132.876 56.0838 131.331L61.1274 122.596L66.9511 125.958C67.7234 126.404 68.6412 126.525 69.5025 126.294C70.3639 126.063 71.0983 125.499 71.5442 124.727C71.9901 123.955 72.1109 123.037 71.8801 122.176C71.6493 121.314 71.0858 120.58 70.3135 120.134L64.4897 116.772L72.8956 102.212L78.7194 105.575C79.4916 106.021 80.4094 106.141 81.2708 105.911C82.1321 105.68 82.8665 105.116 83.3124 104.344C83.7583 103.572 83.8791 102.654 83.6483 101.793C83.4175 100.931 82.854 100.197 82.0817 99.7509L76.2579 96.3886L84.6638 81.8292L90.4876 85.1915C91.2599 85.6374 92.1777 85.7582 93.039 85.5274C93.9004 85.2966 94.6348 84.7331 95.0807 83.9608C95.5265 83.1885 95.6474 82.2708 95.4166 81.4094C95.1858 80.548 94.6222 79.8136 93.85 79.3677L88.0262 76.0054L93.0697 67.2697C93.9615 65.7252 94.2031 63.8896 93.7415 62.1669C93.2799 60.4442 92.1529 58.9754 90.6083 58.0836L38.1944 27.8224C36.6498 26.9307 34.8143 26.689 33.0916 27.1506C31.3688 27.6122 29.9 28.7393 29.0083 30.2838ZM15.3481 82.1878C19.9223 80.2195 24.9321 79.4829 29.8794 80.051C28.854 76.8196 28.8296 73.3537 29.8093 70.1082C30.789 66.8627 32.727 63.9892 35.369 61.8648C38.011 59.7404 41.2336 58.4644 44.6137 58.2043C47.9939 57.9441 51.3737 58.712 54.3097 60.4071C57.2457 62.1021 59.6006 64.6452 61.0653 67.7026C62.5301 70.76 63.0364 74.1888 62.5176 77.539C61.9988 80.8893 60.4793 84.0044 58.1585 86.4756C55.8376 88.9468 52.8239 90.6586 49.5127 91.3863C52.4882 95.388 54.3628 100.1 54.9497 105.052C55.0025 105.49 54.9685 105.935 54.8495 106.36C54.7305 106.785 54.529 107.183 54.2563 107.53C53.9837 107.877 53.6453 108.168 53.2605 108.384C52.8757 108.601 52.452 108.739 52.0137 108.792C51.5753 108.845 51.1308 108.811 50.7056 108.692C50.2803 108.573 49.8827 108.372 49.5354 108.099C49.1881 107.826 48.8978 107.488 48.6813 107.103C48.4647 106.718 48.3261 106.295 48.2733 105.856C47.8674 102.488 46.6828 99.2598 44.8134 96.4284C42.9439 93.5969 40.4409 91.2396 37.5025 89.5432C34.5642 87.8467 31.2712 86.8577 27.8843 86.6544C24.4975 86.4511 21.1098 87.0391 17.9897 88.3719C17.1696 88.7222 16.244 88.7324 15.4164 88.4003C14.5888 88.0681 13.9271 87.4207 13.5768 86.6007C13.2265 85.7806 13.2163 84.855 13.5485 84.0274C13.8807 83.1998 14.528 82.5381 15.3481 82.1878Z"
            fill="#144E57" />
        <path fill-rule="evenodd" clip-rule="evenodd"
            d="M15.3481 82.1878C19.9223 80.2195 24.9321 79.4829 29.8794 80.051C28.854 76.8196 28.8296 73.3537 29.8093 70.1082C30.789 66.8627 32.727 63.9892 35.369 61.8648C38.011 59.7404 41.2336 58.4644 44.6137 58.2043C47.9939 57.9441 51.3737 58.712 54.3097 60.4071C57.2457 62.1021 59.6006 64.6452 61.0653 67.7026C62.5301 70.76 63.0364 74.1888 62.5176 77.539C61.9988 80.8893 60.4793 84.0044 58.1585 86.4756C55.8376 88.9468 52.8239 90.6586 49.5127 91.3863C52.4882 95.388 54.3628 100.1 54.9497 105.052C55.0025 105.49 54.9685 105.935 54.8495 106.36C54.7305 106.785 54.529 107.183 54.2563 107.53C53.9837 107.877 53.6453 108.168 53.2605 108.384C52.8757 108.601 52.452 108.739 52.0137 108.792C51.5753 108.845 51.1308 108.811 50.7056 108.692C50.2803 108.573 49.8827 108.372 49.5354 108.099C49.1881 107.826 48.8978 107.488 48.6813 107.103C48.4647 106.718 48.3261 106.295 48.2733 105.856C47.8674 102.488 46.6828 99.2598 44.8134 96.4284C42.9439 93.5969 40.4409 91.2396 37.5025 89.5432C34.5642 87.8467 31.2712 86.8577 27.8843 86.6544C24.4975 86.4511 21.1098 87.0391 17.9897 88.3719C17.1696 88.7222 16.244 88.7324 15.4164 88.4003C14.5888 88.0681 13.9271 87.4207 13.5768 86.6007C13.2265 85.7806 13.2163 84.855 13.5485 84.0274C13.8807 83.1998 14.528 82.5381 15.3481 82.1878ZM35.8429 75.6435C35.7125 73.6527 36.1752 71.668 37.1728 69.9402C38.5104 67.6234 40.7136 65.9328 43.2977 65.2404C45.8818 64.548 48.6351 64.9105 50.9519 66.2481C52.6797 67.2456 54.0728 68.7331 54.9552 70.5224C55.8376 72.3116 56.1696 74.3224 55.9092 76.3004C55.6488 78.2783 54.8077 80.1347 53.4923 81.6346C52.1768 83.1346 50.4462 84.2108 48.5191 84.7271C46.5921 85.2435 44.5552 85.1768 42.666 84.5355C40.7769 83.8942 39.1203 82.7071 37.9058 81.1244C36.6913 79.5416 35.9734 77.6342 35.8429 75.6435Z"
            fill="#144E57" />
    </g>
    <path fill-rule="evenodd" clip-rule="evenodd"
        d="M54.3613 77.3587C53.9623 77.9923 54.1526 78.8304 54.7862 79.2295L54.7843 79.2325C55.4179 79.6316 56.256 79.4412 56.655 78.8076L60.5154 72.6783C60.6932 72.3927 60.7514 72.0659 60.7048 71.7565C60.6924 71.6675 60.6701 71.5808 60.6393 71.4973C60.5956 71.38 60.5376 71.2686 60.4631 71.1661L52.6596 59.8537C52.4484 59.5476 52.1224 59.3423 51.755 59.2841L38.1503 57.1281C37.6142 57.0426 37.0791 57.2848 36.7899 57.7439C36.5008 58.2031 36.5135 58.7904 36.8221 59.237L40.2244 64.1693L38.7957 66.4378C38.7871 66.4505 38.7786 66.4634 38.7704 66.4765L37.8065 68.0069C35.544 71.5992 36.622 76.3453 40.2142 78.6078C43.8065 80.8703 48.5527 79.7923 50.8151 76.2L51.7583 74.7026C51.7668 74.69 51.7752 74.6772 51.7833 74.6642L53.234 72.3609L57.1209 72.9771L54.3613 77.3587ZM48.9564 74.0605C48.3086 73.377 47.0647 72.2267 45.038 70.9503C43.0118 69.6741 41.4373 69.0492 40.5387 68.7597L40.1021 69.4528C38.6382 71.7772 39.3357 74.8482 41.6601 76.3122C43.9845 77.7761 47.0555 77.0786 48.5195 74.7542L48.9564 74.0605ZM50.4401 71.7062C49.598 70.8916 48.3149 69.8099 46.4829 68.6561L46.4859 68.658C44.654 67.5042 43.1251 66.8127 42.0257 66.4067L43.0002 64.8595C43.2893 64.4003 43.2767 63.813 42.968 63.3664L40.8541 60.3016L50.7583 61.8711L56.4523 70.1256L52.775 69.5431C52.2389 69.4576 51.7037 69.6999 51.4146 70.159L50.4401 71.7062Z"
        fill="white" />
    <path fill-rule="evenodd" clip-rule="evenodd"
        d="M45.0429 86.6003C42.4152 81.192 36.9342 77.7399 30.9214 77.7062C30.7393 77.7052 30.5137 77.6985 30.2554 77.6907C29.0962 77.6561 27.2796 77.6018 25.792 77.9571C24.8573 78.1804 23.8103 78.6118 23.1015 79.5134C22.3461 80.4741 22.1732 81.7066 22.4889 83.0815C23.0157 85.3755 24.0163 87.6424 26.2921 89.0757L36.7887 95.6867C39.0645 97.12 41.5412 97.0432 43.8377 96.5274C45.2141 96.2182 46.251 95.5299 46.7911 94.4336C47.298 93.4048 47.2348 92.2742 47.0325 91.3348C46.7103 89.8396 45.8766 88.2247 45.3446 87.1943C45.2261 86.9647 45.1225 86.764 45.0429 86.6003ZM29.9825 80.4006C30.3041 80.4093 30.6145 80.4176 30.9062 80.4192C35.8858 80.4471 40.4265 83.307 42.6027 87.7859C42.7302 88.0483 42.8718 88.3247 43.0185 88.611C43.5479 89.6442 44.1434 90.8066 44.3803 91.9062C44.5261 92.5832 44.4738 92.9985 44.3575 93.2345C44.2745 93.4029 44.0543 93.6981 43.2431 93.8803C41.2653 94.3246 39.6379 94.2749 38.2346 93.3911L27.7379 86.7801C26.3346 85.8962 25.5868 84.4499 25.1331 82.4743C24.947 81.664 25.1181 81.3379 25.2342 81.1903C25.3968 80.9834 25.7488 80.7568 26.4223 80.5959C27.5164 80.3346 28.8219 80.3695 29.9825 80.4006Z"
        fill="white" />
    <defs>
        <filter id="filter0_d_147_380" x="-25.8787" y="0.921387" width="152.41" height="155.772"
            filterUnits="userSpaceOnUse" color-interpolation-filters="sRGB">
            <feFlood flood-opacity="0" result="BackgroundImageFix" />
            <feColorMatrix in="SourceAlpha" type="matrix"
                values="0 0 0 0 0 0 0 0 0 0 0 0 0 0 0 0 0 0 127 0" result="hardAlpha" />
            <feOffset dx="7" dy="-2" />
            <feGaussianBlur stdDeviation="12" />
            <feComposite in2="hardAlpha" operator="out" />
            <feColorMatrix type="matrix"
                values="0 0 0 0 0.0627451 0 0 0 0 0.0941176 0 0 0 0 0.156863 0 0 0 0.2 0" />
            <feBlend mode="normal" in2="BackgroundImageFix" result="effect1_dropShadow_147_380" />
            <feBlend mode="normal" in="SourceGraphic" in2="effect1_dropShadow_147_380"
                result="shape" />
        </filter>
    </defs>
</svg>
