<svg width="22" height="22" viewBox="0 0 22 22" fill="none" xmlns="http://www.w3.org/2000/svg">
<g id="elements">
<g id="Icon">
<path fill-rule="evenodd" clip-rule="evenodd" d="M17.25 7C17.25 7.414 17.586 7.75 18 7.75C18.414 7.75 18.75 7.414 18.75 7C18.75 6.847 19.015 6.29498 19.655 5.65498C20.295 5.01598 20.847 4.75 21 4.75C21.414 4.75 21.75 4.414 21.75 4C21.75 3.586 21.414 3.25 21 3.25C20.846 3.25 20.295 2.98502 19.655 2.34502C19.016 1.70502 18.75 1.153 18.75 1C18.75 0.586 18.414 0.25 18 0.25C17.586 0.25 17.25 0.586 17.25 1C17.25 1.153 16.985 1.70502 16.345 2.34502C15.705 2.98402 15.153 3.25 15 3.25C14.586 3.25 14.25 3.586 14.25 4C14.25 4.414 14.586 4.75 15 4.75C15.154 4.75 15.705 5.01498 16.345 5.65498C16.984 6.29498 17.25 6.847 17.25 7ZM17.405 4.59502C17.256 4.44502 17.018 4.222 16.73 4C17.018 3.778 17.255 3.55398 17.405 3.40498C17.555 3.25598 17.778 3.01798 18 2.72998C18.222 3.01798 18.446 3.25498 18.595 3.40498C18.744 3.55498 18.982 3.778 19.27 4C18.982 4.222 18.745 4.44602 18.595 4.59502C18.445 4.74402 18.222 4.98202 18 5.27002C17.778 4.98202 17.554 4.74502 17.405 4.59502Z" fill="white"/>
<path fill-rule="evenodd" clip-rule="evenodd" d="M11 20.75C10.586 20.75 10.25 20.414 10.25 20C10.25 15.914 6.086 11.75 2 11.75C1.586 11.75 1.25 11.414 1.25 11C1.25 10.586 1.586 10.25 2 10.25C6.086 10.25 10.25 6.086 10.25 2C10.25 1.586 10.586 1.25 11 1.25C11.414 1.25 11.75 1.586 11.75 2C11.75 6.086 15.914 10.25 20 10.25C20.414 10.25 20.75 10.586 20.75 11C20.75 11.414 20.414 11.75 20 11.75C15.914 11.75 11.75 15.914 11.75 20C11.75 20.414 11.414 20.75 11 20.75ZM5.41802 11C7.84502 12.064 9.935 14.155 11 16.582C12.064 14.155 14.155 12.065 16.582 11C14.155 9.936 12.065 7.84502 11 5.41802C9.936 7.84502 7.84502 9.935 5.41802 11Z" fill="white"/>
<path fill-rule="evenodd" clip-rule="evenodd" d="M3.50005 21.753C3.08605 21.753 2.75005 21.415 2.75005 21.001C2.70805 20.54 1.46404 19.296 0.996045 19.25H0.974072C0.569072 19.239 0.24707 18.908 0.24707 18.5C0.24707 18.092 0.584045 17.752 0.996045 17.75C1.46404 17.705 2.70505 16.464 2.75005 15.996V15.9741C2.76105 15.5691 3.09205 15.2471 3.50005 15.2471C3.90805 15.2471 4.25005 15.586 4.25005 16C4.29205 16.46 5.53605 17.705 6.00405 17.75H6.02603C6.43103 17.761 6.75303 18.092 6.75303 18.5C6.75303 18.908 6.41503 19.25 6.00103 19.25C5.54103 19.292 4.29603 20.5361 4.25103 21.0041V21.026C4.24003 21.431 3.90805 21.753 3.50005 21.753ZM2.63906 18.5C2.95106 18.752 3.24805 19.049 3.50005 19.361C3.75205 19.049 4.04904 18.752 4.36104 18.5C4.04904 18.248 3.75205 17.9511 3.50005 17.6391C3.24805 17.9511 2.95106 18.248 2.63906 18.5Z" fill="white"/>
</g>
</g>
</svg>
