<svg width="22" height="22" viewBox="0 0 22 22" fill="none" xmlns="http://www.w3.org/2000/svg">
<path fill-rule="evenodd" clip-rule="evenodd" d="M16.7865 0.25H16.7135C15.9743 0.249988 15.3668 0.249978 14.8753 0.29671C14.3646 0.345271 13.9022 0.449535 13.4817 0.70725C13.0641 0.963105 12.7131 1.31414 12.4572 1.73166C12.1995 2.15221 12.0953 2.61456 12.0467 3.12529C12 3.61679 12 4.2243 12 4.96344V5.03655C12 5.77569 12 6.38322 12.0467 6.87471C12.0953 7.38545 12.1995 7.84779 12.4572 8.26834C12.7131 8.68586 13.0641 9.0369 13.4817 9.29275C13.9022 9.55047 14.3646 9.65473 14.8753 9.70329C15.3668 9.75002 15.9743 9.75001 16.7134 9.75H16.7866C17.5257 9.75001 18.1332 9.75002 18.6247 9.70329C19.1354 9.65473 19.5978 9.55047 20.0183 9.29275C20.4359 9.0369 20.7869 8.68586 21.0428 8.26834C21.3005 7.84779 21.4047 7.38545 21.4533 6.87471C21.5 6.38322 21.5 5.7757 21.5 5.03656V4.96344C21.5 4.2243 21.5 3.61679 21.4533 3.12529C21.4047 2.61456 21.3005 2.15221 21.0428 1.73166C20.7869 1.31414 20.4359 0.963105 20.0183 0.70725C19.5978 0.449535 19.1354 0.345271 18.6247 0.29671C18.1332 0.249978 17.5257 0.249988 16.7865 0.25ZM14.2654 1.98621C14.4107 1.8972 14.6163 1.8281 15.0173 1.78997C15.4294 1.75079 15.9653 1.75 16.75 1.75C17.5347 1.75 18.0706 1.75079 18.4827 1.78997C18.8837 1.8281 19.0893 1.8972 19.2346 1.98621C19.4503 2.11838 19.6316 2.29972 19.7638 2.51541C19.8528 2.66067 19.9219 2.86634 19.96 3.26727C19.9992 3.67937 20 4.21526 20 5C20 5.78474 19.9992 6.32063 19.96 6.73273C19.9219 7.13367 19.8528 7.33934 19.7638 7.48459C19.6316 7.70028 19.4503 7.88162 19.2346 8.01379C19.0893 8.10281 18.8837 8.17191 18.4827 8.21003C18.0706 8.24921 17.5347 8.25 16.75 8.25C15.9653 8.25 15.4294 8.24921 15.0173 8.21003C14.6163 8.17191 14.4107 8.10281 14.2654 8.01379C14.0497 7.88162 13.8684 7.70028 13.7362 7.48459C13.6472 7.33934 13.5781 7.13367 13.54 6.73273C13.5008 6.32063 13.5 5.78474 13.5 5C13.5 4.21526 13.5008 3.67937 13.54 3.26727C13.5781 2.86634 13.6472 2.66067 13.7362 2.51541C13.8684 2.29972 14.0497 2.11838 14.2654 1.98621Z" fill="#6C737F"/>
<path fill-rule="evenodd" clip-rule="evenodd" d="M4.71345 0.25H4.78655C5.52569 0.249988 6.13322 0.249978 6.62471 0.29671C7.13545 0.345271 7.59779 0.449535 8.01834 0.70725C8.43586 0.963105 8.7869 1.31414 9.04275 1.73166C9.30047 2.15221 9.40473 2.61456 9.45329 3.12529C9.50002 3.61678 9.50001 4.22428 9.5 4.96341V5.03656C9.50001 5.77569 9.50002 6.38322 9.45329 6.87471C9.40473 7.38545 9.30047 7.84779 9.04275 8.26834C8.7869 8.68586 8.43586 9.0369 8.01834 9.29275C7.59779 9.55047 7.13545 9.65473 6.62471 9.70329C6.13322 9.75002 5.52572 9.75001 4.78659 9.75H4.71344C3.97431 9.75001 3.36678 9.75002 2.87529 9.70329C2.36456 9.65473 1.90221 9.55047 1.48166 9.29275C1.06414 9.0369 0.713105 8.68586 0.45725 8.26834C0.199535 7.84779 0.0952706 7.38545 0.0467096 6.87471C-2.18749e-05 6.38322 -1.18288e-05 5.7757 3.93804e-07 5.03656V4.96345C-1.18288e-05 4.22431 -2.18749e-05 3.61679 0.0467096 3.12529C0.0952706 2.61456 0.199535 2.15221 0.45725 1.73166C0.713105 1.31414 1.06414 0.963105 1.48166 0.70725C1.90221 0.449535 2.36456 0.345271 2.87529 0.29671C3.36679 0.249978 3.97431 0.249988 4.71345 0.25ZM3.01727 1.78997C2.61634 1.8281 2.41067 1.8972 2.26541 1.98621C2.04972 2.11838 1.86838 2.29972 1.73621 2.51541C1.6472 2.66067 1.5781 2.86634 1.53997 3.26727C1.50079 3.67937 1.5 4.21526 1.5 5C1.5 5.78474 1.50079 6.32063 1.53997 6.73273C1.5781 7.13367 1.6472 7.33934 1.73621 7.48459C1.86838 7.70028 2.04972 7.88162 2.26541 8.01379C2.41067 8.10281 2.61634 8.17191 3.01727 8.21003C3.42937 8.24921 3.96526 8.25 4.75 8.25C5.53474 8.25 6.07063 8.24921 6.48273 8.21003C6.88367 8.17191 7.08934 8.10281 7.23459 8.01379C7.45028 7.88162 7.63162 7.70028 7.76379 7.48459C7.85281 7.33934 7.92191 7.13367 7.96003 6.73273C7.99921 6.32063 8 5.78474 8 5C8 4.21526 7.99921 3.67937 7.96003 3.26727C7.92191 2.86634 7.85281 2.66067 7.76379 2.51541C7.63162 2.29972 7.45028 2.11838 7.23459 1.98621C7.08934 1.8972 6.88367 1.8281 6.48273 1.78997C6.07063 1.75079 5.53474 1.75 4.75 1.75C3.96526 1.75 3.42937 1.75079 3.01727 1.78997Z" fill="#6C737F"/>
<path fill-rule="evenodd" clip-rule="evenodd" d="M4.71345 12.25C3.97433 12.25 3.36678 12.25 2.87529 12.2967C2.36456 12.3453 1.90221 12.4495 1.48166 12.7072C1.06414 12.9631 0.713105 13.3141 0.45725 13.7317C0.199535 14.1522 0.0952706 14.6146 0.0467096 15.1253C-2.20798e-05 15.6168 -1.18287e-05 16.2243 3.93804e-07 16.9635V17.0365C-1.18287e-05 17.7757 -2.21394e-05 18.3832 0.0467096 18.8747C0.0952706 19.3854 0.199535 19.8478 0.45725 20.2683C0.713105 20.6859 1.06414 21.0369 1.48166 21.2928C1.90221 21.5505 2.36456 21.6547 2.87529 21.7033C3.36679 21.75 3.9743 21.75 4.71344 21.75H4.78656C5.5257 21.75 6.13322 21.75 6.62471 21.7033C7.13545 21.6547 7.59779 21.5505 8.01834 21.2928C8.43586 21.0369 8.7869 20.6859 9.04275 20.2683C9.30047 19.8478 9.40473 19.3854 9.45329 18.8747C9.50002 18.3832 9.50001 17.7757 9.5 17.0366V16.9634C9.50001 16.2243 9.50002 15.6168 9.45329 15.1253C9.40473 14.6146 9.30047 14.1522 9.04275 13.7317C8.7869 13.3141 8.43586 12.9631 8.01834 12.7072C7.59779 12.4495 7.13545 12.3453 6.62471 12.2967C6.13322 12.25 5.52572 12.25 4.78659 12.25H4.71345ZM2.26541 13.9862C2.41067 13.8972 2.61634 13.8281 3.01727 13.79C3.42937 13.7508 3.96526 13.75 4.75 13.75C5.53474 13.75 6.07063 13.7508 6.48273 13.79C6.88367 13.8281 7.08934 13.8972 7.23459 13.9862C7.45028 14.1184 7.63162 14.2997 7.76379 14.5154C7.85281 14.6607 7.92191 14.8663 7.96003 15.2673C7.99921 15.6794 8 16.2153 8 17C8 17.7847 7.99921 18.3206 7.96003 18.7327C7.92191 19.1337 7.85281 19.3393 7.76379 19.4846C7.63162 19.7003 7.45028 19.8816 7.23459 20.0138C7.08934 20.1028 6.88367 20.1719 6.48273 20.21C6.07063 20.2492 5.53474 20.25 4.75 20.25C3.96526 20.25 3.42937 20.2492 3.01727 20.21C2.61634 20.1719 2.41067 20.1028 2.26541 20.0138C2.04972 19.8816 1.86838 19.7003 1.73621 19.4846C1.6472 19.3393 1.5781 19.1337 1.53997 18.7327C1.50079 18.3206 1.5 17.7847 1.5 17C1.5 16.2153 1.50079 15.6794 1.53997 15.2673C1.5781 14.8663 1.6472 14.6607 1.73621 14.5154C1.86838 14.2997 2.04972 14.1184 2.26541 13.9862Z" fill="#6C737F"/>
<path fill-rule="evenodd" clip-rule="evenodd" d="M18.6247 12.2967C18.1332 12.25 17.5257 12.25 16.7865 12.25H16.7135C15.9743 12.25 15.3668 12.25 14.8753 12.2967C14.3646 12.3453 13.9022 12.4495 13.4817 12.7072C13.0641 12.9631 12.7131 13.3141 12.4572 13.7317C12.1995 14.1522 12.0953 14.6146 12.0467 15.1253C12 15.6168 12 16.2243 12 16.9635V17.0365C12 17.7757 12 18.3832 12.0467 18.8747C12.0953 19.3854 12.1995 19.8478 12.4572 20.2683C12.7131 20.6859 13.0641 21.0369 13.4817 21.2928C13.9022 21.5505 14.3646 21.6547 14.8753 21.7033C15.3668 21.75 15.9743 21.75 16.7134 21.75H16.7866C17.5257 21.75 18.1332 21.75 18.6247 21.7033C19.1354 21.6547 19.5978 21.5505 20.0183 21.2928C20.4359 21.0369 20.7869 20.6859 21.0428 20.2683C21.3005 19.8478 21.4047 19.3854 21.4533 18.8747C21.5 18.3832 21.5 17.7757 21.5 17.0366V16.9634C21.5 16.2243 21.5 15.6168 21.4533 15.1253C21.4047 14.6146 21.3005 14.1522 21.0428 13.7317C20.7869 13.3141 20.4359 12.9631 20.0183 12.7072C19.5978 12.4495 19.1354 12.3453 18.6247 12.2967ZM14.2654 13.9862C14.4107 13.8972 14.6163 13.8281 15.0173 13.79C15.4294 13.7508 15.9653 13.75 16.75 13.75C17.5347 13.75 18.0706 13.7508 18.4827 13.79C18.8837 13.8281 19.0893 13.8972 19.2346 13.9862C19.4503 14.1184 19.6316 14.2997 19.7638 14.5154C19.8528 14.6607 19.9219 14.8663 19.96 15.2673C19.9992 15.6794 20 16.2153 20 17C20 17.7847 19.9992 18.3206 19.96 18.7327C19.9219 19.1337 19.8528 19.3393 19.7638 19.4846C19.6316 19.7003 19.4503 19.8816 19.2346 20.0138C19.0893 20.1028 18.8837 20.1719 18.4827 20.21C18.0706 20.2492 17.5347 20.25 16.75 20.25C15.9653 20.25 15.4294 20.2492 15.0173 20.21C14.6163 20.1719 14.4107 20.1028 14.2654 20.0138C14.0497 19.8816 13.8684 19.7003 13.7362 19.4846C13.6472 19.3393 13.5781 19.1337 13.54 18.7327C13.5008 18.3206 13.5 17.7847 13.5 17C13.5 16.2153 13.5008 15.6794 13.54 15.2673C13.5781 14.8663 13.6472 14.6607 13.7362 14.5154C13.8684 14.2997 14.0497 14.1184 14.2654 13.9862Z" fill="#6C737F"/>
</svg>
