<svg width="25" height="24" viewBox="0 0 25 24" fill="none" xmlns="http://www.w3.org/2000/svg">
<path d="M18.3962 2.5551C18.6418 2.22158 19.1113 2.15034 19.4448 2.39597L19.4475 2.39791L19.4537 2.4025L19.4763 2.41935C19.4958 2.43389 19.524 2.45495 19.5595 2.4818C19.6306 2.53546 19.7314 2.61238 19.8521 2.70659C20.0928 2.8944 20.4162 3.1538 20.7418 3.43651C21.0636 3.71597 21.4048 4.03297 21.6715 4.33473C21.804 4.48475 21.934 4.64869 22.0349 4.8161C22.1235 4.96293 22.25 5.20866 22.25 5.49988C22.2501 5.7911 22.1235 6.03684 22.0349 6.18367C21.934 6.35108 21.804 6.51502 21.6715 6.66504C21.4048 6.9668 21.0636 7.28379 20.7418 7.56325C20.4162 7.84595 20.0928 8.10535 19.8521 8.29315C19.7314 8.38736 19.6305 8.46428 19.5595 8.51794C19.524 8.54479 19.4448 8.60376 19.4448 8.60376C19.1113 8.8494 18.6418 8.77814 18.3962 8.44462C18.1505 8.11112 18.2218 7.64167 18.5552 7.39602L18.5608 7.39189L18.58 7.37766C18.5971 7.36491 18.6226 7.34578 18.6554 7.32099C18.7211 7.27139 18.8156 7.19931 18.9293 7.11062C19.1574 6.93262 19.4589 6.69055 19.7583 6.4306C19.8277 6.37036 19.8961 6.30993 19.9627 6.24982H10C6.69313 6.24982 4.25 8.60683 4.25 11.9998C4.25 12.414 3.91421 12.7498 3.5 12.7498C3.08579 12.7498 2.75 12.414 2.75 11.9998C2.75 7.76287 5.88032 4.74982 10 4.74982H19.9626C19.896 4.68974 19.8277 4.62935 19.7583 4.56915C19.4589 4.30919 19.1574 4.06711 18.9293 3.88911C18.8156 3.80041 18.7211 3.72834 18.6555 3.67874C18.6226 3.65395 18.5971 3.63481 18.58 3.62206L18.5608 3.60783L18.5554 3.60379C18.2219 3.35814 18.1506 2.8886 18.3962 2.5551Z" fill="#6C737F"/>
<path d="M6.60387 21.444C6.35824 21.7776 5.88874 21.8488 5.55522 21.6032L5.55259 21.6012L5.54639 21.5966L5.52372 21.5798C5.50421 21.5653 5.47607 21.5442 5.44053 21.5173C5.36948 21.4637 5.26866 21.3868 5.14793 21.2926C4.90728 21.1047 4.58388 20.8453 4.25828 20.5626C3.93641 20.2832 3.59521 19.9662 3.32858 19.6644C3.19603 19.5144 3.06603 19.3505 2.96511 19.183C2.8766 19.0362 2.75 18.7905 2.75 18.4993C2.75 18.208 2.87659 17.9623 2.96511 17.8155C3.06603 17.6481 3.19603 17.4841 3.32859 17.3341C3.59522 17.0323 3.93642 16.7154 4.25829 16.4359C4.58389 16.1532 4.9073 15.8938 5.14796 15.706C5.26868 15.6118 5.36951 15.5349 5.44055 15.4812C5.47609 15.4544 5.55525 15.3954 5.55525 15.3954C5.88877 15.1498 6.35827 15.221 6.6039 15.5545C6.84951 15.888 6.77829 16.3575 6.44483 16.6031L6.43924 16.6073L6.4201 16.6215C6.40299 16.6342 6.37742 16.6534 6.3446 16.6782C6.27893 16.7278 6.18444 16.7998 6.07079 16.8885C5.8427 17.0665 5.5411 17.3086 5.2417 17.5686C5.17232 17.6288 5.10396 17.6892 5.03735 17.7493L15 17.7493C18.3069 17.7493 20.75 15.3923 20.75 11.9993C20.75 11.5851 21.0858 11.2493 21.5 11.2493C21.9143 11.2493 22.25 11.5851 22.25 11.9993C22.25 16.2363 19.1197 19.2493 15.0001 19.2493L5.03749 19.2493C5.10405 19.3094 5.17237 19.3698 5.2417 19.43C5.5411 19.69 5.8427 19.932 6.07079 20.11C6.18444 20.1987 6.27892 20.2708 6.3446 20.3204C6.37741 20.3452 6.40298 20.3643 6.42009 20.3771L6.43923 20.3913L6.44469 20.3954C6.77815 20.641 6.84949 21.1105 6.60387 21.444Z" fill="#6C737F"/>
</svg>
