<svg width="22" height="22" viewBox="0 0 22 22" fill="none" xmlns="http://www.w3.org/2000/svg">
    <path fill-rule="evenodd" clip-rule="evenodd"
        d="M6.09998 1.125C6.09998 0.572715 5.65226 0.125 5.09998 0.125C4.54769 0.125 4.09998 0.572715 4.09998 1.125V1.83669C3.40356 2.0686 2.807 2.4229 2.30152 2.96936C1.52361 3.81035 1.17782 4.87292 1.01222 6.20451C0.849957 7.5093 0.849965 9.18146 0.849976 11.315V11.935C0.849965 14.0685 0.849957 15.7407 1.01222 17.0455C1.17782 18.3771 1.52361 19.4397 2.30152 20.2806C3.08712 21.1299 4.09274 21.5151 5.35126 21.698C6.56929 21.875 8.12552 21.875 10.0892 21.875H12.1107C14.0744 21.875 15.6307 21.875 16.8487 21.698C18.1072 21.5151 19.1128 21.1299 19.8984 20.2806C20.6763 19.4397 21.0221 18.3771 21.1877 17.0455C21.35 15.7407 21.35 14.0685 21.35 11.9349V11.3151C21.35 9.18148 21.35 7.50931 21.1877 6.20451C21.0221 4.87292 20.6763 3.81035 19.8984 2.96936C19.393 2.4229 18.7964 2.0686 18.1 1.83669V1.125C18.1 0.572715 17.6523 0.125 17.1 0.125C16.5477 0.125 16.1 0.572715 16.1 1.125V1.46757C15.0106 1.37497 13.6929 1.37499 12.1107 1.375H10.0892C8.50703 1.37499 7.18935 1.37497 6.09998 1.46757V1.125ZM10.1 12.525C10.1 11.7518 9.47316 11.125 8.69996 11.125L8.09997 11.125C7.54768 11.125 7.09997 11.5727 7.09998 12.125C7.09998 12.6773 7.54769 13.125 8.09997 13.125L8.09998 16.125C8.09998 16.6773 8.54769 17.125 9.09998 17.125C9.65226 17.125 10.1 16.6773 10.1 16.125L10.1 12.525ZM12.1 11.125C11.5477 11.125 11.1 11.5727 11.1 12.125C11.1 12.6773 11.5477 13.125 12.1 13.125H12.7761L11.7921 15.7772C11.6 16.295 11.864 16.8704 12.3818 17.0626C12.8996 17.2547 13.4751 16.9906 13.6672 16.4729L15.0217 12.822C15.3584 11.9145 14.618 11.125 13.8207 11.125H12.1ZM4.09998 7.125C4.09998 6.57272 4.54769 6.125 5.09998 6.125H17.1C17.6523 6.125 18.1 6.57272 18.1 7.125C18.1 7.67729 17.6523 8.125 17.1 8.125H5.09998C4.54769 8.125 4.09998 7.67729 4.09998 7.125Z"
        fill="#1B7683" />
</svg>
