<svg width="22" height="22" viewBox="0 0 22 22" fill="none" xmlns="http://www.w3.org/2000/svg">
    <path d="M8.10004 11.25C7.68582 11.25 7.35004 11.5858 7.35004 12C7.35004 12.4142 7.68582 12.75 8.10004 12.75H8.35003L8.35004 16C8.35004 16.4142 8.68583 16.75 9.10004 16.75C9.51425 16.75 9.85004 16.4142 9.85004 16L9.85003 12.3472C9.85002 11.8346 9.46503 11.25 8.79462 11.25H8.10004Z" fill="#6C737F"/>
    <path d="M12.1 11.25C11.6858 11.25 11.35 11.5858 11.35 12C11.35 12.4142 11.6858 12.75 12.1 12.75H13.1355L12.0265 15.7391C11.8824 16.1275 12.0805 16.5591 12.4688 16.7032C12.8571 16.8472 13.2888 16.6492 13.4329 16.2609L14.7874 12.61C15.0557 11.8867 14.4667 11.25 13.8207 11.25H12.1Z" fill="#6C737F"/>
    <path d="M5.10004 6.25C4.68582 6.25 4.35004 6.58579 4.35004 7C4.35004 7.41421 4.68582 7.75 5.10004 7.75H17.1C17.5143 7.75 17.85 7.41421 17.85 7C17.85 6.58579 17.5143 6.25 17.1 6.25H5.10004Z" fill="#6C737F"/>
    <path fill-rule="evenodd" clip-rule="evenodd" d="M5.85004 1C5.85004 0.585786 5.51425 0.25 5.10004 0.25C4.68582 0.25 4.35004 0.585786 4.35004 1V1.63479C3.54528 1.86288 2.86654 2.2336 2.30158 2.84436C1.52367 3.68535 1.17789 4.74792 1.01229 6.07951C0.850017 7.3843 0.850026 9.05647 0.850037 11.19V11.81C0.850026 13.9435 0.850017 15.6157 1.01229 16.9205C1.17789 18.2521 1.52367 19.3147 2.30158 20.1556C3.08718 21.0049 4.0928 21.3901 5.35132 21.573C6.56935 21.75 8.12558 21.75 10.0893 21.75H12.1108C14.0745 21.75 15.6307 21.75 16.8488 21.573C18.1073 21.3901 19.1129 21.0049 19.8985 20.1556C20.6764 19.3147 21.0222 18.2521 21.1878 16.9205C21.3501 15.6157 21.35 13.9435 21.35 11.8099V11.1901C21.35 9.05648 21.3501 7.38431 21.1878 6.07951C21.0222 4.74792 20.6764 3.68535 19.8985 2.84436C19.3335 2.2336 18.6548 1.86288 17.85 1.63479V1C17.85 0.585786 17.5143 0.25 17.1 0.25C16.6858 0.25 16.35 0.585786 16.35 1V1.36589C15.214 1.24997 13.816 1.24998 12.1108 1.25H10.0893C8.38406 1.24998 6.9861 1.24997 5.85004 1.36589V1ZM3.40273 3.86292C3.66207 3.58256 3.97133 3.36791 4.37864 3.20584C4.4681 3.51998 4.75721 3.75 5.10004 3.75C5.51425 3.75 5.85004 3.41421 5.85004 3V2.87459C6.91104 2.75156 8.28241 2.75 10.15 2.75H12.05C13.9177 2.75 15.289 2.75156 16.35 2.87459V3C16.35 3.41421 16.6858 3.75 17.1 3.75C17.4429 3.75 17.732 3.51998 17.8214 3.20585C18.2287 3.36791 18.538 3.58256 18.7973 3.86292C19.2716 4.37558 19.5518 5.07915 19.6993 6.26463C19.8487 7.46607 19.85 9.04494 19.85 11.2432V11.7568C19.85 13.9551 19.8487 15.5339 19.6993 16.7354C19.5518 17.9208 19.2716 18.6244 18.7973 19.1371C18.3308 19.6414 17.7028 19.9331 16.633 20.0886C15.5353 20.2481 14.0882 20.25 12.05 20.25H10.15C8.11191 20.25 6.66479 20.2481 5.56708 20.0886C4.49732 19.9331 3.86925 19.6414 3.40273 19.1371C2.92852 18.6244 2.64825 17.9208 2.50082 16.7354C2.3514 15.5339 2.35004 13.9551 2.35004 11.7568V11.2432C2.35004 9.04494 2.3514 7.46607 2.50082 6.26463C2.64825 5.07915 2.92852 4.37558 3.40273 3.86292Z" fill="#6C737F"/>
</svg>
