<?xml version="1.0" encoding="UTF-8"?>
<svg xmlns="http://www.w3.org/2000/svg" width="2834.88" height="2834.88" viewBox="0 0 2834.88 2834.88">
<path fill-rule="evenodd" fill="rgb(7.495117%, 63.867188%, 2.700806%)" fill-opacity="1" d="M 934.972656 795.859375 L 624.304688 795.859375 L 624.304688 1999.871094 L 934.972656 1999.871094 L 934.972656 795.859375 "/>
<path fill-rule="evenodd" fill="rgb(80.46875%, 0%, 4.499817%)" fill-opacity="1" d="M 1611.851562 777.359375 L 1611.851562 623.25 L 1647.921875 623.25 L 1647.921875 777.359375 L 1785.21875 777.359375 L 1785.21875 1981.378906 L 1647.921875 1981.378906 L 1647.921875 2135.492188 L 1611.851562 2135.492188 L 1611.851562 1981.378906 L 1474.550781 1981.378906 L 1474.550781 777.359375 L 1611.851562 777.359375 "/>
<path fill-rule="evenodd" fill="rgb(7.395935%, 63.867188%, 2.700806%)" fill-opacity="1" d="M 1229.339844 1470.101562 L 1229.339844 2135.492188 L 1193.261719 2135.492188 L 1193.261719 1470.101562 L 1049.429688 1470.101562 L 1049.429688 530.96875 L 1360.089844 530.96875 L 1360.089844 1470.101562 L 1229.339844 1470.101562 "/>
<path fill-rule="evenodd" fill="rgb(80.46875%, 0%, 4.699707%)" fill-opacity="1" d="M 2036.96875 1570.46875 L 2036.96875 990.648438 L 2073.039062 990.648438 L 2073.039062 1570.46875 L 2210.339844 1570.46875 L 2210.339844 2172.480469 L 2073.039062 2172.480469 L 2073.039062 2304.054688 L 2036.96875 2304.054688 L 2036.96875 2172.480469 L 1899.671875 2172.480469 L 1899.671875 1570.46875 L 2036.96875 1570.46875 "/>
</svg>
