<svg width="22" height="22" viewBox="0 0 22 22" fill="none" xmlns="http://www.w3.org/2000/svg">
<path fill-rule="evenodd" clip-rule="evenodd" d="M12.0083 5.99915C12.0083 5.58493 11.6725 5.24915 11.2583 5.24915C10.8441 5.24915 10.5083 5.58493 10.5083 5.99915V8.88633C9.63441 9.19521 9.0083 10.0286 9.0083 11.0083C9.0083 12.2509 10.0157 13.2583 11.2583 13.2583C11.6044 13.2583 11.9322 13.1802 12.2251 13.0406L13.7349 14.5503C14.0278 14.8432 14.5026 14.8432 14.7955 14.5503C15.0884 14.2574 15.0884 13.7825 14.7955 13.4896L13.2875 11.9816C13.429 11.687 13.5083 11.3569 13.5083 11.0083C13.5083 10.0286 12.8822 9.19521 12.0083 8.88633V5.99915ZM12.0083 11.0083C12.0083 11.2162 11.9237 11.4043 11.7872 11.5401C11.6516 11.675 11.4647 11.7583 11.2583 11.7583C10.8441 11.7583 10.5083 11.4225 10.5083 11.0083C10.5083 10.5941 10.8441 10.2583 11.2583 10.2583C11.6725 10.2583 12.0083 10.5941 12.0083 11.0083Z" fill="#6366F1"/>
<path fill-rule="evenodd" clip-rule="evenodd" d="M11.25 0.25C5.31294 0.25 0.5 5.06294 0.5 11C0.5 16.9371 5.31294 21.75 11.25 21.75C17.1871 21.75 22 16.9371 22 11C22 5.06294 17.1871 0.25 11.25 0.25ZM2 11C2 5.89137 6.14137 1.75 11.25 1.75C16.3586 1.75 20.5 5.89137 20.5 11C20.5 16.1086 16.3586 20.25 11.25 20.25C6.14137 20.25 2 16.1086 2 11Z" fill="#6366F1"/>
</svg>
