<svg width="51" height="47" viewBox="0 0 51 47" fill="none" xmlns="http://www.w3.org/2000/svg">
<path fill-rule="evenodd" clip-rule="evenodd" d="M13.9729 9.83976V3.15598C13.9729 2.94389 14.0571 2.74071 14.2067 2.59127C14.3567 2.44126 14.5599 2.35705 14.772 2.35705H47.8719C48.084 2.35705 48.2872 2.44126 48.4366 2.59127C48.5866 2.74071 48.6708 2.94389 48.6708 3.15598V28.4259C48.6708 28.638 48.5866 28.8411 48.4366 28.9906C48.2872 29.1406 48.084 29.2248 47.8719 29.2248H31.3553C30.9195 29.2248 30.5659 29.5785 30.5659 30.0142C30.5659 30.45 30.9196 30.8037 31.3553 30.8037H47.8719C48.5024 30.8037 49.1071 30.5531 49.5535 30.1074C49.9993 29.6611 50.2498 29.0563 50.2498 28.4258V3.15598C50.2498 2.52547 49.9993 1.92071 49.5535 1.47439C49.1071 1.02856 48.5024 0.778076 47.8719 0.778076C41.8897 0.778076 20.7541 0.778076 14.772 0.778076C14.1414 0.778076 13.5362 1.02865 13.0904 1.47439C12.6445 1.92071 12.394 2.52547 12.394 3.15598V9.83976C12.394 10.2755 12.7477 10.6292 13.1835 10.6292C13.6192 10.6292 13.9729 10.2756 13.9729 9.83976Z" fill="#1B7683"/>
<path fill-rule="evenodd" clip-rule="evenodd" d="M30.952 34.2147V45.4322C30.952 45.8681 31.3062 46.2217 31.7415 46.2217C32.1773 46.2217 32.5309 45.868 32.5309 45.4322V34.2147C32.5309 33.7789 32.1772 33.4253 31.7415 33.4253C31.3062 33.4253 30.952 33.779 30.952 34.2147Z" fill="#1B7683"/>
<path fill-rule="evenodd" clip-rule="evenodd" d="M49.4602 24.613H40.5895C39.5684 24.613 38.7411 25.4404 38.7411 26.4615V30.0141C38.7411 30.45 39.0948 30.8036 39.5305 30.8036C39.9664 30.8036 40.32 30.4499 40.32 30.0141V26.4615C40.32 26.3125 40.4405 26.192 40.5895 26.192H49.4601C49.8959 26.192 50.2495 25.8383 50.2495 25.4026C50.2495 24.9668 49.896 24.613 49.4602 24.613Z" fill="#1B7683"/>
<path fill-rule="evenodd" clip-rule="evenodd" d="M18.6826 7.68118H29.5838C30.0191 7.68118 30.3733 7.32749 30.3733 6.89174C30.3733 6.4559 30.0191 6.10229 29.5838 6.10229H18.6826C18.2469 6.10229 17.8932 6.45598 17.8932 6.89174C17.8931 7.32749 18.2468 7.68118 18.6826 7.68118Z" fill="#1B7683"/>
<path fill-rule="evenodd" clip-rule="evenodd" d="M18.6826 11.7605H44.8014C45.2372 11.7605 45.5908 11.4068 45.5908 10.9711C45.5908 10.5358 45.2372 10.1816 44.8014 10.1816H18.6826C18.2469 10.1816 17.8932 10.5358 17.8932 10.9711C17.8931 11.4068 18.2468 11.7605 18.6826 11.7605Z" fill="#1B7683"/>
<path fill-rule="evenodd" clip-rule="evenodd" d="M23.4601 15.8408H28.6117C29.0475 15.8408 29.4012 15.4872 29.4012 15.0514C29.4012 14.6156 29.0475 14.262 28.6117 14.262H23.4601C23.0248 14.262 22.6707 14.6157 22.6707 15.0514C22.6707 15.4872 23.0248 15.8408 23.4601 15.8408Z" fill="#1B7683"/>
<path fill-rule="evenodd" clip-rule="evenodd" d="M36.1102 21.4141H44.2588C44.6946 21.4141 45.0482 21.0604 45.0482 20.6246C45.0482 20.1894 44.6946 19.8352 44.2588 19.8352H36.1102C35.6744 19.8352 35.3208 20.1894 35.3208 20.6246C35.3208 21.0604 35.6745 21.4141 36.1102 21.4141Z" fill="#1B7683"/>
<path fill-rule="evenodd" clip-rule="evenodd" d="M38.0607 15.8408H44.675C45.1109 15.8408 45.4645 15.4872 45.4645 15.0514C45.4645 14.6156 45.1108 14.262 44.675 14.262H38.0607C37.6254 14.262 37.2712 14.6157 37.2712 15.0514C37.2712 15.4872 37.6254 15.8408 38.0607 15.8408Z" fill="#1B7683"/>
<path fill-rule="evenodd" clip-rule="evenodd" d="M12.8429 11.5378C8.83489 11.5378 5.58118 14.7916 5.58118 18.7995C5.58118 22.8075 8.83489 26.0612 12.8429 26.0612C16.8503 26.0612 20.1046 22.8075 20.1046 18.7995C20.1046 14.7916 16.8504 11.5378 12.8429 11.5378ZM12.8429 13.1168C15.9793 13.1168 18.5256 15.6631 18.5256 18.7995C18.5256 21.9359 15.9793 24.4823 12.8429 24.4823C9.70648 24.4823 7.16015 21.9359 7.16015 18.7995C7.16015 15.6631 9.70656 13.1168 12.8429 13.1168Z" fill="#1B7683"/>
<path d="M12.8429 13.1168C15.9793 13.1168 18.5256 15.6631 18.5256 18.7995C18.5256 21.9359 15.9793 24.4823 12.8429 24.4823C9.70648 24.4823 7.16015 21.9359 7.16015 18.7995C7.16015 15.6631 9.70656 13.1168 12.8429 13.1168Z" fill="#1B7683"/>
<path fill-rule="evenodd" clip-rule="evenodd" d="M26.0433 25.4099L23.0901 28.2431C22.9412 28.3858 22.7433 28.4652 22.537 28.4652H8.86782C5.37411 28.4652 2.39037 30.9868 1.80774 34.4321C1.28249 37.5364 0.652474 41.2627 0.283016 43.4474C0.166688 44.1375 0.35988 44.8438 0.811403 45.3785C1.2635 45.9133 1.9277 46.2217 2.62773 46.2217H17.2595C18.5732 46.2217 19.638 45.1569 19.638 43.8438V36.3727C19.638 36.3011 19.6659 36.2326 19.7164 36.1821C19.7675 36.1316 19.8359 36.1032 19.9075 36.1032H23.4149C25.0286 36.1032 26.5797 35.4795 27.7439 34.3626C28.7918 33.3574 30.1792 32.0268 31.3308 30.9215C32.0619 30.2204 32.484 29.2578 32.5051 28.2452C32.5261 27.243 32.1519 26.273 31.4646 25.5446C31.4577 25.5373 31.4282 25.5067 31.4209 25.4994C30.7219 24.7825 29.7683 24.3683 28.7661 24.3472C27.7534 24.3267 26.7744 24.7083 26.0433 25.4099ZM24.1833 29.382C24.8297 28.762 26.0481 27.593 27.1365 26.5488C27.5649 26.1377 28.1397 25.9135 28.7334 25.9261C29.3213 25.9383 29.8802 26.1809 30.2902 26.6014C30.2944 26.6061 30.3118 26.624 30.316 26.6287C30.7191 27.0555 30.9386 27.6245 30.9265 28.2119C30.9144 28.8061 30.6665 29.3709 30.2375 29.7819C29.0859 30.8872 27.6986 32.2177 26.6506 33.2231C25.7806 34.0578 24.6211 34.5241 23.4147 34.5241C22.2384 34.5241 20.8431 34.5241 19.9073 34.5241C19.4168 34.5241 18.9468 34.7189 18.6 35.0657C18.2536 35.4121 18.0589 35.8826 18.0589 36.3726V43.8437C18.0584 44.2848 17.701 44.6427 17.2599 44.6427H2.62765C2.39235 44.6427 2.16919 44.539 2.01761 44.3595C1.86554 44.1795 1.80081 43.9421 1.83969 43.7106L3.36442 34.6952C3.81867 32.0099 6.14448 30.0441 8.86766 30.0441H22.5368C23.1506 30.0441 23.7401 29.8067 24.1833 29.382Z" fill="#1B7683"/>
<path d="M24.1833 29.382L27.1365 26.5488C27.5649 26.1377 28.1397 25.9135 28.7334 25.9261C29.3213 25.9383 29.8802 26.1809 30.2902 26.6014C30.2944 26.6061 30.3118 26.624 30.316 26.6287C30.7191 27.0555 30.9386 27.6245 30.9265 28.2119C30.9144 28.8061 30.6665 29.3709 30.2375 29.7819C29.0859 30.8872 27.6986 32.2177 26.6506 33.2231C25.7806 34.0578 24.6211 34.5241 23.4147 34.5241H19.9073C19.4168 34.5241 18.9468 34.7189 18.6 35.0657C18.2536 35.4121 18.0589 35.8826 18.0589 36.3726V43.8437C18.0584 44.2848 17.701 44.6427 17.2599 44.6427H2.62765C2.39235 44.6427 2.16919 44.539 2.01761 44.3595C1.86554 44.1795 1.80081 43.9421 1.83969 43.7106L3.36442 34.6952C3.81867 32.0099 6.14448 30.0441 8.86766 30.0441H22.5368C23.1506 30.0441 23.7401 29.8067 24.1833 29.382Z" fill="#1B7683"/>
<path fill-rule="evenodd" clip-rule="evenodd" d="M7.3395 45.5638L8.72007 37.3979C8.79273 36.9685 8.50319 36.5605 8.07321 36.488C7.64373 36.4153 7.2358 36.7053 7.16323 37.1348L5.78265 45.3007C5.71 45.7302 5.99946 46.1381 6.42951 46.2107C6.85899 46.2834 7.26692 45.9933 7.3395 45.5638Z" fill="#1B7683"/>
<path fill-rule="evenodd" clip-rule="evenodd" d="M7.37534 41.4056H12.1249C12.2738 41.4056 12.3944 41.5262 12.3944 41.6751V45.432C12.3944 45.8679 12.7481 46.2215 13.1838 46.2215C13.6196 46.2215 13.9732 45.8678 13.9732 45.432V41.6751C13.9732 40.654 13.1453 39.8267 12.1248 39.8267C10.4495 39.8267 7.37526 39.8267 7.37526 39.8267C6.9395 39.8267 6.58582 40.1803 6.58582 40.6161C6.58582 41.0519 6.9395 41.4056 7.37534 41.4056Z" fill="#1B7683"/>
<path fill-rule="evenodd" clip-rule="evenodd" d="M30.3346 25.5124L33.6047 15.2917C33.7373 14.8765 33.5083 14.4323 33.0931 14.2991C32.6784 14.1665 32.2336 14.3955 32.1004 14.8107L28.8309 25.0314C28.6982 25.4461 28.9272 25.8909 29.3419 26.024C29.7573 26.1566 30.202 25.9271 30.3346 25.5124Z" fill="#1B7683"/>
</svg>
