<svg width="285" height="285" viewBox="0 0 285 285" fill="none" xmlns="http://www.w3.org/2000/svg">
    <circle cx="142.5" cy="142.5" r="115.5" fill="#16171A"/>
    <path d="M273.297 184.906C275.924 185.758 277.372 188.581 276.429 191.177C268.797 212.175 256.325 231.108 239.997 246.426C222.452 262.885 201.026 274.635 177.715 280.58C154.404 286.525 129.967 286.472 106.683 280.425C83.398 274.379 62.0231 262.535 44.5502 245.999C27.0773 229.463 14.0752 208.773 6.75578 185.856C-0.563674 162.94 -1.96223 138.543 2.69047 114.94C7.34317 91.3374 17.8956 69.2967 33.3644 50.8722C47.7603 33.7256 65.978 20.2306 86.5241 11.4545C89.0635 10.3698 91.9624 11.6597 92.9574 14.2356L94.4827 18.1846C95.4777 20.7605 94.1913 23.6462 91.6561 24.7408C73.3499 32.6446 57.1159 44.7181 44.2652 60.0243C30.3415 76.6084 20.843 96.4477 16.655 117.693C12.467 138.938 13.7259 160.898 20.3143 181.526C26.9026 202.153 38.606 220.777 54.3337 235.662C70.0613 250.546 89.3013 261.206 110.26 266.649C131.219 272.092 153.215 272.14 174.198 266.789C195.18 261.437 214.466 250.861 230.259 236.045C244.834 222.372 255.996 205.497 262.88 186.784C263.833 184.192 266.644 182.749 269.271 183.601L273.297 184.906Z" fill="url(#paint0_linear_119_3916)"/>
    <path d="M95.6658 13.222C94.7252 10.6257 96.0651 7.74959 98.6928 6.90066C122.008 -0.631757 146.901 -2.03361 170.964 2.87184C196.662 8.1106 220.416 20.3397 239.61 38.2124C258.804 56.0851 272.693 78.9081 279.748 104.168C286.354 127.821 286.727 152.751 280.874 176.543C280.214 179.224 277.441 180.766 274.784 180.012L270.692 178.852C268.035 178.099 266.503 175.336 267.152 172.652C272.296 151.386 271.92 129.128 266.02 108.002C259.67 85.2687 247.171 64.7286 229.897 48.6435C212.623 32.5585 191.245 21.5526 168.117 16.8378C146.625 12.4564 124.396 13.6659 103.551 20.3108C100.92 21.1495 98.0551 19.8172 97.1145 17.2209L95.6658 13.222Z" fill="url(#paint1_linear_119_3916)"/>
    <defs>
        <linearGradient id="paint0_linear_119_3916" x1="254.824" y1="228" x2="189.529" y2="63.5364" gradientUnits="userSpaceOnUse">
            <stop stop-color="#3E40AB"/>
            <stop offset="1" stop-color="#6366F1"/>
        </linearGradient>
        <linearGradient id="paint1_linear_119_3916" x1="65.9062" y1="35.2059" x2="248.156" y2="246.515" gradientUnits="userSpaceOnUse">
            <stop stop-color="#0D92A6"/>
            <stop offset="1" stop-color="#22D3EE"/>
            <stop offset="1" stop-color="#70C1FA"/>
        </linearGradient>
    </defs>
</svg>
