<svg width="328" height="1" viewBox="0 0 328 1" fill="none" xmlns="http://www.w3.org/2000/svg">
    <mask id="path-1-inside-1_122_1201" fill="white">
        <path d="M0 0H328V1H0V0Z" />
    </mask>
    <path
        d="M0 1V1.5H1V1V0.5H0V1ZM3 1V1.5H5V1V0.5H3V1ZM7 1V1.5H9V1V0.5H7V1ZM11 1V1.5H13V1V0.5H11V1ZM15 1V1.5H17V1V0.5H15V1ZM19 1V1.5H21V1V0.5H19V1ZM23 1V1.5H25V1V0.5H23V1ZM27 1V1.5H29V1V0.5H27V1ZM31 1V1.5H33V1V0.5H31V1ZM35 1V1.5H37V1V0.5H35V1ZM39 1V1.5H41V1V0.5H39V1ZM43 1V1.5H45V1V0.5H43V1ZM47 1V1.5H49V1V0.5H47V1ZM51 1V1.5H53V1V0.5H51V1ZM55 1V1.5H57V1V0.5H55V1ZM59 1V1.5H61V1V0.5H59V1ZM63 1V1.5H65V1V0.5H63V1ZM67 1V1.5H69V1V0.5H67V1ZM71 1V1.5H73V1V0.5H71V1ZM75 1V1.5H77V1V0.5H75V1ZM79 1V1.5H81V1V0.5H79V1ZM83 1V1.5H85V1V0.5H83V1ZM87 1V1.5H89V1V0.5H87V1ZM91 1V1.5H93V1V0.5H91V1ZM95 1V1.5H97V1V0.5H95V1ZM99 1V1.5H101V1V0.5H99V1ZM103 1V1.5H105V1V0.5H103V1ZM107 1V1.5H109V1V0.5H107V1ZM111 1V1.5H113V1V0.5H111V1ZM115 1V1.5H117V1V0.5H115V1ZM119 1V1.5H121V1V0.5H119V1ZM123 1V1.5H125V1V0.5H123V1ZM127 1V1.5H129V1V0.5H127V1ZM131 1V1.5H133V1V0.5H131V1ZM135 1V1.5H137V1V0.5H135V1ZM139 1V1.5H141V1V0.5H139V1ZM143 1V1.5H145V1V0.5H143V1ZM147 1V1.5H149V1V0.5H147V1ZM151 1V1.5H153V1V0.5H151V1ZM155 1V1.5H157V1V0.5H155V1ZM159 1V1.5H161V1V0.5H159V1ZM163 1V1.5H165V1V0.5H163V1ZM167 1V1.5H169V1V0.5H167V1ZM171 1V1.5H173V1V0.5H171V1ZM175 1V1.5H177V1V0.5H175V1ZM179 1V1.5H181V1V0.5H179V1ZM183 1V1.5H185V1V0.5H183V1ZM187 1V1.5H189V1V0.5H187V1ZM191 1V1.5H193V1V0.5H191V1ZM195 1V1.5H197V1V0.5H195V1ZM199 1V1.5H201V1V0.5H199V1ZM203 1V1.5H205V1V0.5H203V1ZM207 1V1.5H209V1V0.5H207V1ZM211 1V1.5H213V1V0.5H211V1ZM215 1V1.5H217V1V0.5H215V1ZM219 1V1.5H221V1V0.5H219V1ZM223 1V1.5H225V1V0.5H223V1ZM227 1V1.5H229V1V0.5H227V1ZM231 1V1.5H233V1V0.5H231V1ZM235 1V1.5H237V1V0.5H235V1ZM239 1V1.5H241V1V0.5H239V1ZM243 1V1.5H245V1V0.5H243V1ZM247 1V1.5H249V1V0.5H247V1ZM251 1V1.5H253V1V0.5H251V1ZM255 1V1.5H257V1V0.5H255V1ZM259 1V1.5H261V1V0.5H259V1ZM263 1V1.5H265V1V0.5H263V1ZM267 1V1.5H269V1V0.5H267V1ZM271 1V1.5H273V1V0.5H271V1ZM275 1V1.5H277V1V0.5H275V1ZM279 1V1.5H281V1V0.5H279V1ZM283 1V1.5H285V1V0.5H283V1ZM287 1V1.5H289V1V0.5H287V1ZM291 1V1.5H293V1V0.5H291V1ZM295 1V1.5H297V1V0.5H295V1ZM299 1V1.5H301V1V0.5H299V1ZM303 1V1.5H305V1V0.5H303V1ZM307 1V1.5H309V1V0.5H307V1ZM311 1V1.5H313V1V0.5H311V1ZM315 1V1.5H317V1V0.5H315V1ZM319 1V1.5H321V1V0.5H319V1ZM323 1V1.5H325V1V0.5H323V1ZM327 1V1.5H328V1V0.5H327V1ZM0 1V2H1V1V0H0V1ZM3 1V2H5V1V0H3V1ZM7 1V2H9V1V0H7V1ZM11 1V2H13V1V0H11V1ZM15 1V2H17V1V0H15V1ZM19 1V2H21V1V0H19V1ZM23 1V2H25V1V0H23V1ZM27 1V2H29V1V0H27V1ZM31 1V2H33V1V0H31V1ZM35 1V2H37V1V0H35V1ZM39 1V2H41V1V0H39V1ZM43 1V2H45V1V0H43V1ZM47 1V2H49V1V0H47V1ZM51 1V2H53V1V0H51V1ZM55 1V2H57V1V0H55V1ZM59 1V2H61V1V0H59V1ZM63 1V2H65V1V0H63V1ZM67 1V2H69V1V0H67V1ZM71 1V2H73V1V0H71V1ZM75 1V2H77V1V0H75V1ZM79 1V2H81V1V0H79V1ZM83 1V2H85V1V0H83V1ZM87 1V2H89V1V0H87V1ZM91 1V2H93V1V0H91V1ZM95 1V2H97V1V0H95V1ZM99 1V2H101V1V0H99V1ZM103 1V2H105V1V0H103V1ZM107 1V2H109V1V0H107V1ZM111 1V2H113V1V0H111V1ZM115 1V2H117V1V0H115V1ZM119 1V2H121V1V0H119V1ZM123 1V2H125V1V0H123V1ZM127 1V2H129V1V0H127V1ZM131 1V2H133V1V0H131V1ZM135 1V2H137V1V0H135V1ZM139 1V2H141V1V0H139V1ZM143 1V2H145V1V0H143V1ZM147 1V2H149V1V0H147V1ZM151 1V2H153V1V0H151V1ZM155 1V2H157V1V0H155V1ZM159 1V2H161V1V0H159V1ZM163 1V2H165V1V0H163V1ZM167 1V2H169V1V0H167V1ZM171 1V2H173V1V0H171V1ZM175 1V2H177V1V0H175V1ZM179 1V2H181V1V0H179V1ZM183 1V2H185V1V0H183V1ZM187 1V2H189V1V0H187V1ZM191 1V2H193V1V0H191V1ZM195 1V2H197V1V0H195V1ZM199 1V2H201V1V0H199V1ZM203 1V2H205V1V0H203V1ZM207 1V2H209V1V0H207V1ZM211 1V2H213V1V0H211V1ZM215 1V2H217V1V0H215V1ZM219 1V2H221V1V0H219V1ZM223 1V2H225V1V0H223V1ZM227 1V2H229V1V0H227V1ZM231 1V2H233V1V0H231V1ZM235 1V2H237V1V0H235V1ZM239 1V2H241V1V0H239V1ZM243 1V2H245V1V0H243V1ZM247 1V2H249V1V0H247V1ZM251 1V2H253V1V0H251V1ZM255 1V2H257V1V0H255V1ZM259 1V2H261V1V0H259V1ZM263 1V2H265V1V0H263V1ZM267 1V2H269V1V0H267V1ZM271 1V2H273V1V0H271V1ZM275 1V2H277V1V0H275V1ZM279 1V2H281V1V0H279V1ZM283 1V2H285V1V0H283V1ZM287 1V2H289V1V0H287V1ZM291 1V2H293V1V0H291V1ZM295 1V2H297V1V0H295V1ZM299 1V2H301V1V0H299V1ZM303 1V2H305V1V0H303V1ZM307 1V2H309V1V0H307V1ZM311 1V2H313V1V0H311V1ZM315 1V2H317V1V0H315V1ZM319 1V2H321V1V0H319V1ZM323 1V2H325V1V0H323V1ZM327 1V2H328V1V0H327V1Z"
        fill="#D2D0DB" mask="url(#path-1-inside-1_122_1201)" />
</svg>
