<svg width="379" height="352" viewBox="0 0 379 352" fill="none" xmlns="http://www.w3.org/2000/svg">
    <path
        d="M311.144 188.041C310.92 186.608 309.578 185.628 308.142 185.851C306.71 186.075 305.729 187.421 305.953 188.853C306.331 191.301 306.808 198.965 304.163 202.048C303.591 202.715 302.899 203.115 302.03 203.274L302.271 188.677C302.305 186.557 300.598 184.819 298.473 184.819C296.349 184.819 294.624 186.578 294.676 188.711L295.364 216.413C294.452 216.267 293.734 215.867 293.14 215.175C290.495 212.091 290.977 204.427 291.351 201.98C291.575 200.547 290.594 199.201 289.162 198.978C287.726 198.754 286.384 199.735 286.16 201.167C285.971 202.371 284.453 213.106 289.145 218.585C290.758 220.469 292.942 221.54 295.493 221.703L295.79 233.763H301.523L301.94 208.569C304.434 208.375 306.568 207.313 308.155 205.459C312.847 199.98 311.329 189.245 311.139 188.041H311.144Z"
        fill="#E1DFFF" />
    <path
        d="M66.406 211.527C66.2641 210.616 65.4082 209.988 64.4921 210.134C63.5803 210.276 62.9524 211.132 63.0986 212.048C63.3395 213.609 63.6449 218.495 61.9589 220.46C61.5934 220.886 61.1547 221.14 60.5999 221.243L60.7547 211.936C60.7762 210.586 59.6881 209.476 58.3333 209.476C56.9785 209.476 55.8818 210.598 55.9119 211.958L56.3506 229.617C55.77 229.522 55.3098 229.269 54.9356 228.83C53.2496 226.864 53.555 221.979 53.7958 220.417C53.9378 219.506 53.3142 218.645 52.4024 218.503C51.4863 218.362 50.6304 218.985 50.4885 219.897C50.3681 220.667 49.4004 227.505 52.3895 231.002C53.4174 232.202 54.8109 232.886 56.4366 232.989L56.6259 240.674H60.2816L60.5482 224.615C62.1353 224.49 63.4986 223.815 64.5093 222.632C67.4984 219.14 66.5308 212.297 66.4103 211.527H66.406Z"
        fill="#E1DFFF" />
    <path
        d="M189.023 351.865C293.418 351.865 378.047 321.905 378.047 284.947C378.047 247.99 293.418 218.03 189.023 218.03C84.6286 218.03 0 247.99 0 284.947C0 321.905 84.6286 351.865 189.023 351.865Z"
        fill="url(#paint0_linear_158_1528)" />
    <circle cx="181.5" cy="69.5" r="69.5" fill="#E1DFFF" fill-opacity="0.38" />
    <ellipse cx="108" cy="25.5" rx="7" ry="6.5" fill="#E1DFFF" fill-opacity="0.38" />
    <circle cx="104.5" cy="145.5" r="9.5" fill="#E1DFFF" fill-opacity="0.38" />
    <ellipse cx="274" cy="46.5" rx="9" ry="9.5" fill="#E1DFFF" fill-opacity="0.38" />
    <circle cx="259.5" cy="10.5" r="5.5" fill="#E1DFFF" fill-opacity="0.38" />
    <defs>
        <linearGradient id="paint0_linear_158_1528" x1="189.023" y1="187.7" x2="189.023"
            y2="292.779" gradientUnits="userSpaceOnUse">
            <stop stop-color="#E1DFFF" />
            <stop offset="0.48" stop-color="#E1DFFF" />
            <stop offset="1" stop-color="white" />
        </linearGradient>
    </defs>
</svg>
