<svg width="23" height="20" viewBox="0 0 23 20" fill="none" xmlns="http://www.w3.org/2000/svg">
<path fill-rule="evenodd" clip-rule="evenodd" d="M15.5537 0.250001L12.4463 0.250001C11.3135 0.24998 10.3877 0.249963 9.65689 0.348222C8.89294 0.450932 8.2306 0.673214 7.70191 1.20191C7.17321 1.7306 6.95093 2.39294 6.84822 3.15689C6.74996 3.88774 6.74998 4.81344 6.75 5.94624L6.75 14.0537C6.74998 15.1865 6.74996 16.1123 6.84822 16.8431C6.95093 17.6071 7.17321 18.2694 7.70191 18.7981C8.2306 19.3268 8.89294 19.5491 9.65689 19.6518C10.3877 19.75 11.3134 19.75 12.4462 19.75H13.7046C13.4336 19.4922 13.0893 19.253 12.6917 19.1001C11.5754 18.671 10.9841 17.435 11.3661 16.289C11.759 15.1101 13.0333 14.473 14.2121 14.866C14.6162 15.0006 15.0865 15.2435 15.421 15.4408C16.4369 13.9942 18.0707 12.1999 20.4944 10.988C20.7383 10.8661 20.9939 10.7926 21.25 10.7639L21.25 5.94632C21.25 4.81351 21.25 3.88774 21.1518 3.15689C21.0491 2.39294 20.8268 1.7306 20.2981 1.20191C19.7694 0.673214 19.1071 0.450932 18.3431 0.348222C17.6123 0.249963 16.6865 0.24998 15.5537 0.250001ZM9.75 5C9.75 4.58579 10.0858 4.25 10.5 4.25L17.5 4.25C17.9142 4.25 18.25 4.58579 18.25 5C18.25 5.41422 17.9142 5.75 17.5 5.75L10.5 5.75C10.0858 5.75 9.75 5.41422 9.75 5ZM10.5 8.25C10.0858 8.25 9.75 8.58579 9.75 9C9.75 9.41422 10.0858 9.75 10.5 9.75L17.5 9.75C17.9142 9.75 18.25 9.41422 18.25 9C18.25 8.58579 17.9142 8.25 17.5 8.25L10.5 8.25Z" fill="#1B7683"/>
<path d="M22.171 12.6648C22.3563 13.0352 22.2061 13.4857 21.8356 13.671C19.9805 14.5986 18.693 15.9969 17.8646 17.1803C17.4517 17.7701 17.1576 18.3 16.9679 18.6793C16.8732 18.8687 16.7461 19.1621 16.7024 19.2635C16.6035 19.5268 16.3654 19.7131 16.086 19.7452C15.8064 19.7774 15.5323 19.6504 15.3762 19.4162C14.9504 18.7776 14.414 18.3464 13.9777 18.0737C13.7607 17.938 13.3898 17.7691 13.2597 17.7106C12.8689 17.5783 12.6581 17.1548 12.7887 16.763C12.9197 16.37 13.3444 16.1577 13.7374 16.2887C14.0466 16.3917 14.4897 16.6248 14.7727 16.8017C15.0931 17.0019 15.4618 17.272 15.8259 17.6261C16.0301 17.2508 16.2978 16.8028 16.6358 16.3201C17.5574 15.0034 19.02 13.4018 21.1648 12.3293C21.5353 12.1441 21.9858 12.2943 22.171 12.6648Z" fill="#1B7683"/>
<path d="M0.75 2C0.75 1.0335 1.5335 0.250001 2.5 0.250001L3.5 0.250001C4.4665 0.250001 5.25 1.0335 5.25 2L5.25 4.25L0.75 4.25L0.75 2Z" fill="#1B7683"/>
<path d="M0.75 5.75L5.25 5.75L5.25 16C5.25 16.1164 5.22289 16.2313 5.17082 16.3354L3.67082 19.3354C3.54378 19.5895 3.28408 19.75 3 19.75C2.71592 19.75 2.45622 19.5895 2.32918 19.3354L0.82918 16.3354C0.777109 16.2313 0.75 16.1164 0.75 16L0.75 5.75Z" fill="#1B7683"/>
</svg>
