<svg width="25" height="24" viewBox="0 0 25 24" fill="none" xmlns="http://www.w3.org/2000/svg">
    <path d="M16.5227 2.25L13.4153 2.25C12.2825 2.24998 11.3567 2.24996 10.6259 2.34823C9.8619 2.45096 9.19955 2.67328 8.67086 3.20205C8.14219 3.7308 7.91992 4.3932 7.81721 5.15723C7.71895 5.88818 7.71897 6.81402 7.719 7.94701L7.719 16.0556C7.71897 17.1886 7.71895 18.1144 7.81721 18.8454C7.91992 19.6094 8.14219 20.2718 8.67086 20.8006C9.11699 21.2468 9.66025 21.4763 10.2836 21.5984C10.886 21.7164 11.6119 21.7428 12.4626 21.75C12.8768 21.7535 13.2155 21.4206 13.219 21.0064C13.2225 20.5922 12.8896 20.2535 12.4754 20.25C11.6195 20.2428 11.0217 20.2145 10.572 20.1264C10.1432 20.0424 9.90588 19.9143 9.7316 19.74C9.52804 19.5364 9.38419 19.2433 9.30384 18.6455C9.22059 18.0262 9.219 17.2018 9.219 16.0019L9.219 8.00073C9.219 6.80085 9.22059 5.97637 9.30384 5.35707C9.38419 4.75933 9.52804 4.46622 9.7316 4.26263C9.93514 4.05906 10.2282 3.91521 10.8258 3.83485C11.445 3.7516 12.2693 3.75 13.469 3.75L16.469 3.75C17.6687 3.75 18.493 3.7516 19.1122 3.83485C19.7098 3.91521 20.0028 4.05906 20.2064 4.26263C20.41 4.46622 20.5538 4.75933 20.6342 5.35707C20.7174 5.97637 20.719 6.80085 20.719 8.00073L20.719 12.0013C20.719 12.4155 21.0548 12.7513 21.469 12.7513C21.8832 12.7513 22.219 12.4155 22.219 12.0013L22.219 7.94703C22.219 6.81403 22.219 5.88818 22.1208 5.15723C22.0181 4.3932 21.7958 3.7308 21.2671 3.20205C20.7384 2.67328 20.0761 2.45096 19.3121 2.34823C18.5813 2.24996 17.6555 2.24998 16.5227 2.25Z" fill="#6C737F"/>
    <path fill-rule="evenodd" clip-rule="evenodd" d="M3.46899 2.25C2.5025 2.25 1.71899 3.0335 1.71899 4L1.71899 18C1.71899 18.1164 1.7461 18.2313 1.79817 18.3354L3.29817 21.3354C3.42522 21.5895 3.68492 21.75 3.96899 21.75C4.25307 21.75 4.51277 21.5895 4.63981 21.3354L6.13981 18.3354C6.19188 18.2313 6.21899 18.1164 6.21899 18L6.21899 4C6.21899 3.0335 5.43549 2.25 4.46899 2.25L3.46899 2.25ZM4.71899 6.25L4.71899 4C4.71899 3.86193 4.60707 3.75 4.46899 3.75L3.46899 3.75C3.33092 3.75 3.21899 3.86193 3.21899 4L3.21899 6.25L4.71899 6.25ZM3.21899 7.75L4.71899 7.75L4.71899 17.8229L3.96899 19.3229L3.21899 17.823L3.21899 7.75Z" fill="#6C737F"/>
    <path d="M11.719 7C11.719 6.58579 12.0548 6.25 12.469 6.25L17.469 6.25C17.8832 6.25 18.219 6.58579 18.219 7C18.219 7.41421 17.8832 7.75 17.469 7.75L12.469 7.75C12.0548 7.75 11.719 7.41421 11.719 7Z" fill="#6C737F"/>
    <path d="M12.469 10.25C12.0548 10.25 11.719 10.5858 11.719 11C11.719 11.4142 12.0548 11.75 12.469 11.75L17.469 11.75C17.8832 11.75 18.219 11.4142 18.219 11C18.219 10.5858 17.8832 10.25 17.469 10.25L12.469 10.25Z" fill="#6C737F"/>
    <path d="M23.14 14.6648C23.3253 15.0352 23.1751 15.4857 22.8046 15.671C20.9494 16.5986 19.662 17.9969 18.8336 19.1803C18.4207 19.7701 18.1266 20.3 17.9369 20.6793C17.8422 20.8687 17.7739 21.0199 17.7302 21.1213C17.7084 21.1719 17.6927 21.2101 17.683 21.2343L17.6728 21.2599L17.6714 21.2635C17.5725 21.5268 17.3344 21.7131 17.055 21.7452C16.7754 21.7774 16.5013 21.6504 16.3452 21.4162C15.9194 20.7776 15.383 20.3464 14.9467 20.0737C14.7297 19.938 14.5416 19.8442 14.4114 19.7857C14.3465 19.7565 14.2966 19.7363 14.2653 19.7242C14.2497 19.7181 14.2388 19.7142 14.2331 19.7121L14.2303 19.7111L14.2287 19.7106C13.8379 19.5783 13.6271 19.1548 13.7577 18.763C13.8887 18.37 14.3134 18.1577 14.7064 18.2887L14.7074 18.289L14.7114 18.2903L14.7186 18.2928L14.7395 18.3002C14.7563 18.3062 14.7786 18.3144 14.8059 18.325C14.8606 18.3461 14.9356 18.3767 15.027 18.4178C15.2093 18.4999 15.4587 18.6248 15.7417 18.8017C16.062 19.0019 16.4308 19.272 16.7949 19.6261C16.9991 19.2508 17.2668 18.8028 17.6048 18.3201C18.5264 17.0034 19.9889 15.4018 22.1338 14.3293C22.5043 14.1441 22.9548 14.2943 23.14 14.6648Z" fill="#6C737F"/>
</svg>
