<svg width="24" height="25" viewBox="0 0 24 25" fill="none" xmlns="http://www.w3.org/2000/svg">
<g clip-path="url(#clip0_1918_10482)">
<path d="M20.1601 4.86084L2.64006 4.86084C1.97732 4.86084 1.44006 5.3981 1.44006 6.06084L1.44006 14.2208C1.44006 14.8836 1.97732 15.4208 2.64006 15.4208L20.1601 15.4208C20.8228 15.4208 21.3601 14.8836 21.3601 14.2208V6.06084C21.3601 5.3981 20.8228 4.86084 20.1601 4.86084Z" fill="#F9B552"/>
<path d="M21.36 6.78094L2.64 6.78094C1.18197 6.78094 0 7.96291 0 9.42094L0 20.2209C0 21.679 1.18197 22.8609 2.64 22.8609H21.36C22.818 22.8609 24 21.679 24 20.2209V9.42094C24 7.96291 22.818 6.78094 21.36 6.78094Z" fill="#FFCF5C"/>
<path d="M9.36 2.46094L2.64 2.46094C1.18197 2.46094 0 3.64291 0 5.10094L0 8.94094C0 10.399 1.18197 11.5809 2.64 11.5809H9.36C10.818 11.5809 12 10.399 12 8.94094V5.10094C12 3.64291 10.818 2.46094 9.36 2.46094Z" fill="#FFCF5C"/>
</g>
<defs>
<clipPath id="clip0_1918_10482">
<rect width="24" height="24" fill="white" transform="translate(0 0.666748)"/>
</clipPath>
</defs>
</svg>
