<svg width="23" height="22" viewBox="0 0 23 22" fill="none" xmlns="http://www.w3.org/2000/svg">
<path fill-rule="evenodd" clip-rule="evenodd" d="M16.9693 1.32287C18.2745 1.67059 19.3271 1.95101 20.1252 2.28231C20.9538 2.62623 21.6134 3.06567 22.0361 3.79352C22.459 4.52199 22.5122 5.31139 22.3972 6.19861C22.2866 7.05231 22.0044 8.09953 21.6548 9.39672L20.603 13.2997C20.2535 14.597 19.9713 15.6442 19.6379 16.4385C19.2913 17.2641 18.8488 17.92 18.1179 18.3396C17.3876 18.7589 16.5966 18.8117 15.7061 18.6976C14.8484 18.5877 13.7959 18.3073 12.4907 17.9595L11.4306 17.677C10.1254 17.3293 9.07285 17.0489 8.27469 16.7176C7.44613 16.3737 6.78646 15.9342 6.36386 15.2064C5.94089 14.4779 5.88773 13.6885 6.0027 12.8013C6.11333 11.9476 6.39555 10.9004 6.74512 9.60317L7.79686 5.70016C8.14642 4.40287 8.42859 3.35566 8.76202 2.5614C9.10859 1.73583 9.55112 1.07986 10.282 0.660254C11.0123 0.241004 11.8033 0.188185 12.6938 0.302294C13.5516 0.4122 14.6041 0.692653 15.9093 1.04043L16.9693 1.32287ZM16.7 6C16.7 6.82843 16.0284 7.5 15.2 7.5C14.3716 7.5 13.7 6.82843 13.7 6C13.7 5.17157 14.3716 4.5 15.2 4.5C16.0284 4.5 16.7 5.17157 16.7 6Z" fill="#1B7683"/>
<path d="M5.4495 6.20917C5.97909 6.05249 6.2814 5.49615 6.12471 4.96656C5.96803 4.43697 5.41169 4.13467 4.8821 4.29135C3.35429 4.74336 2.08636 5.22933 1.40035 6.41087C0.938742 7.20589 0.886556 8.05805 1.00275 8.97429C1.11326 9.84574 1.39621 10.9076 1.73868 12.1929L2.78743 16.1292C3.1298 17.4143 3.4127 18.4763 3.75029 19.2866C4.10516 20.1385 4.57462 20.8519 5.37191 21.3096C6.16837 21.7668 7.02226 21.814 7.93926 21.694C8.81286 21.5796 9.87838 21.2925 11.1696 20.9445L11.7101 20.7989C12.2434 20.6552 12.5592 20.1064 12.4155 19.5731C12.2718 19.0399 11.723 18.7241 11.1898 18.8678L10.717 18.9951C9.34086 19.366 8.40493 19.616 7.67968 19.7109C6.98258 19.8022 6.63173 19.7267 6.36766 19.5751C6.10443 19.424 5.86467 19.1613 5.5965 18.5175C5.317 17.8466 5.06704 16.9168 4.7018 15.5459L3.68945 11.7462C3.32422 10.3754 3.07838 9.44437 2.98686 8.72268C2.89907 8.0304 2.9758 7.68059 3.12995 7.4151C3.37117 6.99964 3.86179 6.67891 5.4495 6.20917Z" fill="#1B7683"/>
</svg>
