<svg width="23" height="22" viewBox="0 0 23 22" fill="none" xmlns="http://www.w3.org/2000/svg">
<path fill-rule="evenodd" clip-rule="evenodd" d="M15.0715 4.20899C13.8426 4.20899 12.8391 5.20072 12.8391 6.43301C12.8391 7.6653 13.8426 8.65704 15.0715 8.65704C16.3004 8.65704 17.3039 7.6653 17.3039 6.43301C17.3039 5.20072 16.3004 4.20899 15.0715 4.20899ZM14.3391 6.43301C14.3391 6.03714 14.663 5.70899 15.0715 5.70899C15.48 5.70899 15.8039 6.03714 15.8039 6.43301C15.8039 6.82889 15.48 7.15704 15.0715 7.15704C14.663 7.15704 14.3391 6.82889 14.3391 6.43301Z" fill="#6C737F"/>
<path fill-rule="evenodd" clip-rule="evenodd" d="M16.9695 1.32287L15.9094 1.04043C14.6042 0.692653 13.5517 0.4122 12.6939 0.302294C11.8034 0.188185 11.0124 0.241004 10.2821 0.660254C9.55125 1.07986 9.10872 1.73583 8.76214 2.5614C8.42871 3.35566 8.14654 4.40287 7.79698 5.70016L6.74524 9.60316C6.39567 10.9004 6.11345 11.9476 6.00282 12.8013C5.88785 13.6885 5.94102 14.4779 6.36398 15.2064C6.78659 15.9342 7.44625 16.3737 8.27481 16.7176C9.07296 17.0489 10.1255 17.3293 11.4306 17.677L12.4908 17.9595C13.7959 18.3072 14.8485 18.5877 15.7062 18.6976C16.5968 18.8117 17.3877 18.7589 18.118 18.3396C18.8489 17.92 19.2914 17.2641 19.638 16.4385C19.9714 15.6442 20.2536 14.597 20.6032 13.2998L21.6549 9.39673C22.0045 8.09953 22.2867 7.05231 22.3973 6.19861C22.5123 5.31139 22.4591 4.52199 22.0362 3.79352C21.6136 3.06567 20.9539 2.62623 20.1253 2.28231C19.3272 1.95102 18.2746 1.67059 16.9695 1.32287ZM11.029 1.96112C11.3622 1.76981 11.778 1.69719 12.5033 1.79013C13.2499 1.8858 14.2056 2.13879 15.5759 2.50391L16.5305 2.75824C17.9009 3.12337 18.8557 3.37939 19.5503 3.66771C20.2252 3.94786 20.5476 4.21702 20.739 4.5467C20.93 4.87576 21.003 5.28629 20.9098 6.00583C20.8137 6.74725 20.5595 7.69664 20.1923 9.0596L19.1691 12.8564C18.8019 14.2193 18.5446 15.1679 18.2549 15.8579C17.9739 16.5273 17.7038 16.8478 17.3712 17.0388C17.038 17.2301 16.6222 17.3027 15.8969 17.2098C15.1502 17.1141 14.1946 16.8611 12.8242 16.496L11.8696 16.2417C10.4993 15.8765 9.54446 15.6205 8.84986 15.3322C8.17493 15.052 7.8526 14.7829 7.66118 14.4532C7.47012 14.1241 7.39714 13.7136 7.49038 12.9941C7.58647 12.2526 7.84063 11.3033 8.2079 9.9403L9.23102 6.1435C9.59829 4.78058 9.85557 3.83196 10.1452 3.14201C10.4262 2.47257 10.6963 2.15208 11.029 1.96112Z" fill="#6C737F"/>
<path d="M5.20003 5.25029L5.02707 5.25014C4.36459 5.2493 3.67876 5.24842 3.09581 5.36442C2.4208 5.49874 1.76761 5.81078 1.35975 6.5287C0.941302 7.26524 0.888261 8.06288 1.00246 8.96353C1.11258 9.83199 1.39372 10.8982 1.7429 12.2224L2.79127 16.1986C3.14035 17.5226 3.42147 18.5889 3.75347 19.3972C4.09762 20.235 4.53723 20.9023 5.26674 21.3303C5.99804 21.7594 6.79115 21.8134 7.68217 21.6968C8.53901 21.5846 9.58992 21.2984 10.8911 20.944L11.8971 20.6701C12.2968 20.5613 12.5326 20.149 12.4237 19.7494C12.3149 19.3497 11.9027 19.114 11.503 19.2228L10.5507 19.4821C9.18308 19.8545 8.23089 20.1121 7.4874 20.2095C6.76635 20.3039 6.35554 20.23 6.02582 20.0366C5.69431 19.8421 5.42297 19.5138 5.14098 18.8272C4.85123 18.1218 4.59406 17.1526 4.22784 15.7636L3.20712 11.8923C2.84093 10.5035 2.58671 9.53324 2.49055 8.77484C2.39702 8.03721 2.46983 7.61137 2.66397 7.26965C2.786 7.05484 2.97693 6.91749 3.38856 6.83558C3.81877 6.74997 4.35812 6.7501 5.08433 6.75027L5.20015 6.75029C5.61436 6.75026 5.95012 6.41444 5.95009 6.00023C5.95006 5.58602 5.61425 5.25026 5.20003 5.25029Z" fill="#6C737F"/>
</svg>
