<svg width="21" height="20" viewBox="0 0 21 20" fill="none" xmlns="http://www.w3.org/2000/svg">
<path fill-rule="evenodd" clip-rule="evenodd" d="M19.9018 8.98874C20.1301 8.45953 20.033 7.80273 19.5235 7.35692L13.6641 2.2296C13.5482 2.12821 13.4302 2.02205 13.31 1.91379C12.4457 1.1359 11.4615 0.25 10.2687 0.25C9.07601 0.25 8.09177 1.13589 7.22751 1.91378C7.10724 2.02204 6.98929 2.1282 6.87343 2.22959L1.01395 7.35692C0.50447 7.80273 0.407357 8.45954 0.635659 8.98874C0.812432 9.39851 1.17498 9.71803 1.63655 9.83551C1.84383 9.88827 1.94748 9.91465 1.98955 9.96857C2.03162 10.0225 2.03193 10.1089 2.03255 10.2818C2.0355 11.1014 2.04197 12.9211 2.04197 13.1392C2.04194 14.4846 2.04192 15.5762 2.1671 16.4362C2.29819 17.3368 2.5797 18.0912 3.22161 18.6841C3.85505 19.2691 4.64672 19.5185 5.59218 19.6359C6.51102 19.75 7.68227 19.75 9.14903 19.75H11.3884C12.8551 19.75 14.0264 19.75 14.9453 19.6359C15.8907 19.5185 16.6824 19.2691 17.3159 18.6841C17.9578 18.0912 18.2393 17.3368 18.3704 16.4362C18.4955 15.5762 18.4955 14.4846 18.4955 13.1392C18.4955 12.9211 18.502 11.1014 18.5049 10.2818C18.5055 10.1089 18.5058 10.0225 18.5479 9.96857C18.59 9.91465 18.6936 9.88827 18.9009 9.83551C19.3625 9.71803 19.725 9.3985 19.9018 8.98874ZM10.269 12.75C9.57869 12.75 9.01904 13.3096 9.01904 14C9.01904 14.6904 9.57869 15.25 10.269 15.25H10.278C10.9684 15.25 11.528 14.6904 11.528 14C11.528 13.3096 10.9684 12.75 10.278 12.75H10.269Z" fill="#1B7683"/>
</svg>
