<svg width="21" height="20" viewBox="0 0 21 20" fill="none" xmlns="http://www.w3.org/2000/svg">
    <path d="M10.3 13C9.7477 13 9.29999 13.4477 9.29999 14C9.29999 14.5523 9.7477 15 10.3 15H10.309C10.8613 15 11.309 14.5523 11.309 14C11.309 13.4477 10.8613 13 10.309 13H10.3Z" fill="#6C737F"/>
    <path fill-rule="evenodd" clip-rule="evenodd" d="M10.3 0.25C9.67121 0.25 9.1389 0.483066 8.61588 0.833529C8.12123 1.16499 7.5689 1.64833 6.90468 2.22959L1.0452 7.35692C0.53572 7.80273 0.438607 8.45954 0.666909 8.98874C0.891496 9.50934 1.41594 9.88428 2.06236 9.88428C2.06644 9.88428 2.07005 9.88456 2.07322 9.88499L2.07322 13.1392C2.07319 14.4846 2.07317 15.5762 2.19835 16.4362C2.32944 17.3368 2.61095 18.0912 3.25286 18.6841C3.8863 19.2691 4.67796 19.5185 5.62343 19.6359C6.54227 19.75 7.71352 19.75 9.18028 19.75H11.4196C12.8864 19.75 14.0577 19.75 14.9765 19.6359C15.922 19.5185 16.7137 19.2691 17.3471 18.6841C17.989 18.0912 18.2705 17.3368 18.4016 16.4362C18.5268 15.5762 18.5268 14.4846 18.5267 13.1392V9.88499C18.5288 9.88471 18.5311 9.88449 18.5335 9.88438C18.5348 9.88432 18.5362 9.88428 18.5376 9.88428C19.184 9.88428 19.7085 9.50934 19.9331 8.98874C20.1614 8.45953 20.0642 7.80273 19.5548 7.35692L13.6953 2.2296C13.0311 1.64834 12.4787 1.16499 11.9841 0.833529C11.4611 0.483065 10.9288 0.25 10.3 0.25ZM7.85553 3.39075C8.56621 2.76887 9.04616 2.35083 9.45088 2.07964C9.83637 1.82132 10.0775 1.75 10.3 1.75C10.5224 1.75 10.7636 1.82132 11.1491 2.07964C11.5538 2.35083 12.0337 2.76887 12.7444 3.39075L18.4537 8.38659C17.7084 8.4276 17.0267 9.01068 17.0267 9.83705V13.0806C17.0267 14.4987 17.0249 15.4807 16.9173 16.2202C16.8137 16.9315 16.6259 17.3082 16.3293 17.5822C16.0243 17.864 15.5914 18.048 14.7917 18.1474C13.9761 18.2486 12.8982 18.25 11.3681 18.25H9.23187C7.70171 18.25 6.62385 18.2486 5.80828 18.1474C5.00858 18.048 4.57571 17.864 4.27063 17.5822C3.97401 17.3082 3.78626 16.9315 3.68271 16.2202C3.57508 15.4807 3.57322 14.4987 3.57322 13.0806V9.83705C3.57322 9.01068 2.89159 8.4276 2.14631 8.38659L7.85553 3.39075Z" fill="#6C737F"/>
</svg>
