<svg width="879" height="504" viewBox="0 0 879 504" fill="none" xmlns="http://www.w3.org/2000/svg">
<path d="M417.333 16.0001C347.067 25.8667 293.2 84.6667 289.733 155.467C286.667 219.2 323.467 276.667 382.533 300.267C402.133 308 413.067 309.867 438 309.867C458.133 309.733 462.133 309.333 474 306.267C491.2 301.6 516.133 289.2 529.333 278.533C534.8 274.133 539.467 269.867 539.6 268.933C539.867 268 535.867 262.8 530.8 257.333L521.6 247.333L516.4 251.6C506.533 260 491.333 269.467 481.333 273.2C436.933 290.267 387.2 280.267 353.867 247.333C330.8 224.667 318.667 195.467 318.667 162.667C318.667 116.8 343.6 76.8 384.667 56.6667C402.533 48 412.267 45.3334 430.933 44.4C459.467 42.8 487.733 51.4667 508.667 68C512.4 70.8 516.8 74.4 518.667 75.7334L522 78.4L531.333 67.6L540.533 56.9334L533.333 50.4C517.867 36.5334 495.6 25.2 472.133 19.2C457.6 15.4667 431.867 14.0001 417.333 16.0001Z" fill="#E30512"/>
<path d="M540.4 75.6002C536.133 80.6668 532 85.4668 531.467 86.4002C530.8 87.4668 532.533 91.3335 535.867 96.4002C549.333 117.2 555.867 138.667 556 162.4C556 186.267 549.733 208 537.333 226.933C533.733 232.533 530.667 237.6 530.667 238.267C530.8 238.8 534.933 243.867 540 249.333L549.333 259.333L553.867 254C565.333 240.8 577.6 215.067 582.267 194.8C585.067 182.267 586 154.133 584.133 141.6C581.067 122.4 573.6 101.733 563.6 85.3335C559.333 78.2668 550.533 66.6668 549.333 66.6668C548.8 66.6668 544.8 70.6668 540.4 75.6002Z" fill="black"/>
<path d="M422.667 94.1338C386.533 101.867 362.267 136.934 367.733 172.934C373.733 211.334 409.6 238 447.733 232.267C460.267 230.267 477.2 222.4 484.267 215.067L489.2 210L479.867 199.2L470.667 188.4L466 192.667C457.733 200.534 450.133 203.334 437.333 203.334C423.733 203.334 416.667 200.4 407.333 191.067C388.133 171.6 394.133 138.8 419.2 125.6C425.067 122.534 427.6 122 437.333 122C450.133 122 456.8 124.667 465.467 132.8L470.267 137.467L479.867 126.4L489.467 115.334L483.333 109.734C475.467 102.534 463.2 96.5338 451.333 94.0004C440 91.6004 434 91.6004 422.667 94.1338Z" fill="#E30512"/>
<path d="M487.6 136C476 149.2 466.267 160.934 465.867 162C464.933 164.134 507.733 213.6 509.867 212.934C512.267 212.267 521.067 193.334 523.467 184C526.4 172.667 526.4 152.667 523.6 141.334C521.2 132.267 512.267 113.2 510 112.4C509.2 112.134 499.2 122.8 487.6 136Z" fill="black"/>
<path d="M551.6 339.467C551.067 340 550.667 344 550.667 348.267V356H583.333H616.133L615.733 347.6L615.333 339.333L583.867 338.933C566.667 338.8 552.133 339.067 551.6 339.467Z" fill="black"/>
<path d="M628.667 340.267C628.267 341.2 628.133 370.8 628.267 406L628.667 470H640H651.333V404.667V339.333L640.267 338.933C632.267 338.667 629.067 339.067 628.667 340.267Z" fill="black"/>
<path d="M656.933 339.467C656.4 340 656 343.6 656 347.6V354.667H668.667H681.467L681.067 346.934L680.667 339.334L669.333 338.934C663.067 338.8 657.467 338.934 656.933 339.467Z" fill="black"/>
<path d="M778 339.734C777.067 340.667 777.333 462.534 778.267 467.067L778.933 470.8L789.867 470.4L800.667 470V404.8V339.6L789.6 339.334C783.6 339.2 778.4 339.467 778 339.734Z" fill="black"/>
<path d="M825.867 339.867C825.6 340.134 825.333 352.934 825.333 368.267V396H815.333H805.333V403.334V410.667H815.333H825.333V440.667V470.667H836.667H848V404.534V338.4L837.2 338.934C831.333 339.2 826.133 339.6 825.867 339.867Z" fill="black"/>
<path d="M76.6666 341.867C65.0666 345.6 57.7333 350.134 48.5333 359.2C34.5333 373.2 29.4666 385.6 29.3333 405.467C29.3333 429.734 42.1333 450.934 64 462.534C75.0666 468.4 86.8 470.667 107.733 470.667H125.333V458.134V445.6L104.4 445.067C84.6666 444.667 82.9333 444.4 76.5333 441.067C54.8 429.734 47.8666 404.8 60.4 383.867C69.2 369.2 82 364 108.933 364H125.333V352V340L103.733 340.134C90 340.134 80 340.8 76.6666 341.867Z" fill="#E30612"/>
<path d="M185.333 342.534C173.467 346.4 166.533 350.534 157.867 359.2C149.067 368.134 142.667 379.867 140.133 391.734C132.667 427.334 157.333 463.2 193.467 469.334C236.933 476.667 275.867 439.334 269.467 396.267C265.733 370.934 248.133 350 224.4 342.667C213.2 339.2 195.733 339.2 185.333 342.534ZM222.267 368.8C238.933 376.8 248.667 397.2 244 414.267C239.067 432 224.933 443.734 206.8 444.934C171.067 447.467 150.4 405.2 174.4 378.534C187.2 364.4 205.2 360.667 222.267 368.8Z" fill="#E30612"/>
<path d="M293.333 342.534C290.667 344 287.467 347.334 285.733 350.667L282.667 356.534L282.933 413.2L283.333 470L295.6 470.4L308 470.8L308.267 449.067L308.667 427.334L320.133 426.934L331.6 426.534L350.8 448.667L370 470.667H384.4C393.067 470.667 398.667 470.134 398.4 469.334C398.267 468.667 389.333 458.4 378.8 446.667C368.267 434.8 360.133 424.667 360.8 424.134C361.467 423.6 364.933 422 368.533 420.667C376.8 417.6 383.867 411.334 388 403.067C390.933 397.467 391.333 394.934 391.333 383.334C391.333 371.467 390.933 369.334 387.733 363.2C382.8 353.867 373.733 346.134 363.6 342.8C356.4 340.267 352.267 340 326.667 340C301.2 340 297.467 340.267 293.333 342.534ZM355.467 366.134C368.8 372.4 368.667 395.2 355.333 400.8C352 402.134 344.933 402.667 329.333 402.667H308V383.334V364H329.467C346.4 364 351.867 364.4 355.467 366.134Z" fill="#E30612"/>
<path d="M457.333 343.067C433.733 351.067 417.2 370.133 413.067 394.4C407.333 428.133 430.4 461.733 464 468.8C470.4 470.133 479.333 470.667 491.067 470.4L508.667 470V458V446L488 445.333C465.6 444.667 460.133 443.2 450.933 435.333C447.067 432 438.667 419.6 438.667 417.067C438.667 416.533 454.4 415.867 473.733 415.733L508.667 415.333L508.8 404.933L508.933 394.667H474.533C455.6 394.667 439.867 394.267 439.467 393.6C438.267 391.6 442.667 383.867 448.667 377.467C458.533 366.933 464.8 364.933 489.067 364.267L509.333 363.733V351.867V340H487.733C468.8 340 464.8 340.4 457.333 343.067Z" fill="#E30612"/>
<path d="M713.6 342.8C710.533 344.4 706.133 347.733 704 350.4C696.533 359.467 695.6 364.4 694.933 398.133C694.4 430.933 695.6 444.667 699.867 453.067C704.667 462.267 714.533 469.2 723.733 469.733L728.667 470L729.067 462C729.467 454.267 729.333 453.867 725.6 452.533C718 449.6 717.333 445.6 717.333 405.067C717.333 364.933 718 361.2 725.733 357.6C729.067 356 729.333 355.2 729.333 347.867V340H724.4C721.6 340 716.8 341.333 713.6 342.8Z" fill="black"/>
<path d="M733.333 348.533C733.333 355.867 733.733 357.067 736 357.733C740 358.8 742.667 366.533 743.333 378.933L743.867 390H754.267H764.667L764.533 378.4C764.4 371.6 763.333 364 762 360C758.267 348.933 747.2 340 737.2 340C733.333 340 733.333 340 733.333 348.533Z" fill="black"/>
<path d="M572 415.334V470.667H583.333H594.667V415.334V360H583.333H572V415.334Z" fill="black"/>
<path d="M656 402.667V410.667H664H672V402.667V394.667H664H656V402.667Z" fill="black"/>
<path d="M743.6 430.667C742.667 443.2 740.4 449.6 736 452.4C733.733 453.734 733.333 455.467 733.333 462.534V470.934L738.4 470C746.267 468.534 754.267 463.2 758 456.8C762.667 448.934 763.733 444.4 764.8 430.4L765.733 418.667H755.067H744.4L743.6 430.667Z" fill="black"/>
<path d="M656 462.667V470.667H668.667H681.333V462.667V454.667H668.667H656V462.667Z" fill="black"/>
</svg>
