<svg width="1191" height="325" viewBox="0 0 1191 325" fill="none" xmlns="http://www.w3.org/2000/svg">
<g clip-path="url(#clip0_8_392)">
<path d="M127.778 15.8966C57.5119 25.7632 3.64486 84.5632 0.177863 155.363C-2.88814 219.096 33.9118 276.564 92.9779 300.164C112.578 307.897 123.512 309.764 148.445 309.764C168.578 309.63 172.578 309.23 184.445 306.164C201.645 301.497 226.578 289.097 239.778 278.43C245.245 274.03 249.912 269.764 250.045 268.83C250.312 267.897 246.312 262.697 241.245 257.23L232.045 247.229L226.845 251.497C216.978 259.897 201.778 269.364 191.778 273.097C147.378 290.164 97.6449 280.163 64.3119 247.229C41.2449 224.563 29.1119 195.364 29.1119 162.564C29.1119 116.697 54.0449 76.6965 95.1119 56.5632C112.978 47.8965 122.712 45.2299 141.378 44.2965C169.912 42.6965 198.178 51.3632 219.112 67.8965C222.845 70.6965 227.245 74.2965 229.112 75.6299L232.445 78.2965L241.778 67.4965L250.978 56.8299L243.778 50.2965C228.312 36.4299 206.045 25.0965 182.578 19.0965C168.045 15.3632 142.312 13.8966 127.778 15.8966Z" fill="#F91F2B"/>
<path d="M250.845 75.4967C246.578 80.5633 242.445 85.3633 241.912 86.2967C241.245 87.3633 242.978 91.23 246.312 96.2967C259.778 117.097 266.312 138.564 266.445 162.297C266.445 186.164 260.178 207.897 247.778 226.83C244.178 232.43 241.112 237.497 241.112 238.164C241.245 238.697 245.378 243.764 250.445 249.23L259.778 259.23L264.312 253.897C275.778 240.697 288.045 214.964 292.712 194.697C295.512 182.164 296.445 154.03 294.578 141.497C291.512 122.297 284.045 101.63 274.045 85.23C269.778 78.1633 260.978 66.5633 259.778 66.5633C259.245 66.5633 255.245 70.5633 250.845 75.4967Z" fill="#0E0E0E"/>
<path d="M133.112 94.0303C96.9778 101.764 72.7118 136.831 78.1778 172.831C84.1778 211.231 120.045 237.897 158.178 232.164C170.712 230.164 187.645 222.297 194.712 214.964L199.645 209.897L190.312 199.097L181.112 188.297L176.445 192.564C168.178 200.431 160.578 203.231 147.778 203.231C134.178 203.231 127.112 200.297 117.778 190.964C98.5778 171.497 104.578 138.697 129.645 125.497C135.512 122.431 138.045 121.897 147.778 121.897C160.578 121.897 167.245 124.564 175.912 132.697L180.712 137.364L190.312 126.297L199.912 115.231L193.778 109.631C185.912 102.431 173.645 96.4303 161.778 93.8969C150.445 91.4969 144.445 91.4969 133.112 94.0303Z" fill="#F91F2B"/>
<path d="M198.045 135.897C186.445 149.097 176.712 160.831 176.312 161.897C175.378 164.031 218.178 213.497 220.312 212.831C222.712 212.164 231.512 193.231 233.912 183.897C236.845 172.564 236.845 152.564 234.045 141.231C231.645 132.164 222.712 113.097 220.445 112.297C219.645 112.031 209.645 122.697 198.045 135.897Z" fill="#0E0E0E"/>
<path d="M863.149 97.3488C862.616 97.8818 862.216 101.882 862.216 106.149V113.882H894.882H927.682L927.282 105.482L926.882 97.2148L895.416 96.8148C878.216 96.6818 863.682 96.9488 863.149 97.3488Z" fill="#0E0E0E"/>
<path d="M940.216 98.1488C939.816 99.0818 939.682 128.682 939.816 163.882L940.216 227.882H951.549H962.882V162.549V97.2148L951.816 96.8148C943.816 96.5488 940.616 96.9488 940.216 98.1488Z" fill="#0E0E0E"/>
<path d="M968.482 97.3488C967.949 97.8818 967.549 101.482 967.549 105.482V112.549H980.216H993.016L992.616 104.816L992.216 97.2158L980.882 96.8158C974.616 96.6818 969.016 96.8158 968.482 97.3488Z" fill="#0E0E0E"/>
<path d="M1089.55 97.6158C1088.62 98.5488 1088.88 220.416 1089.82 224.949L1090.48 228.682L1101.42 228.282L1112.22 227.882V162.682V97.4818L1101.15 97.2158C1095.15 97.0818 1089.95 97.3488 1089.55 97.6158Z" fill="#0E0E0E"/>
<path d="M1137.42 97.7488C1137.15 98.0158 1136.88 110.816 1136.88 126.149V153.882H1126.88H1116.88V161.216V168.549H1126.88H1136.88V198.549V228.549H1148.22H1159.55V162.416V96.2818L1148.75 96.8158C1142.88 97.0818 1137.68 97.4818 1137.42 97.7488Z" fill="#0E0E0E"/>
<path d="M388.216 99.7488C376.616 103.482 369.283 108.016 360.083 117.082C346.083 131.082 341.016 143.482 340.883 163.349C340.883 187.616 353.683 208.816 375.549 220.416C386.616 226.282 398.349 228.549 419.282 228.549H436.882V216.016V203.482L415.949 202.949C396.216 202.549 394.483 202.282 388.083 198.949C366.349 187.616 359.416 162.682 371.949 141.749C380.749 127.082 393.549 121.882 420.482 121.882H436.882V109.882V97.8818L415.282 98.0158C401.549 98.0158 391.549 98.6818 388.216 99.7488Z" fill="#F91F2B"/>
<path d="M496.882 100.416C485.016 104.282 478.082 108.416 469.416 117.082C460.616 126.016 454.216 137.749 451.682 149.616C444.216 185.216 468.882 221.082 505.016 227.216C548.482 234.549 587.416 197.216 581.016 154.149C577.282 128.816 559.682 107.882 535.949 100.549C524.749 97.0818 507.282 97.0818 496.882 100.416ZM533.816 126.682C550.482 134.682 560.216 155.082 555.549 172.149C550.616 189.882 536.482 201.616 518.349 202.816C482.616 205.349 461.949 163.082 485.949 136.416C498.749 122.282 516.749 118.549 533.816 126.682Z" fill="#F91F2B"/>
<path d="M604.882 100.416C602.216 101.882 599.016 105.216 597.282 108.549L594.216 114.416L594.482 171.082L594.882 227.882L607.149 228.282L619.549 228.682L619.816 206.949L620.216 185.216L631.682 184.816L643.149 184.416L662.349 206.549L681.549 228.549H695.949C704.616 228.549 710.216 228.016 709.949 227.216C709.816 226.549 700.882 216.282 690.349 204.549C679.816 192.682 671.682 182.549 672.349 182.016C673.016 181.482 676.482 179.882 680.082 178.549C688.349 175.482 695.416 169.216 699.549 160.949C702.482 155.349 702.882 152.816 702.882 141.216C702.882 129.349 702.482 127.216 699.282 121.082C694.349 111.749 685.282 104.016 675.149 100.682C667.949 98.1488 663.816 97.8818 638.216 97.8818C612.749 97.8818 609.016 98.1488 604.882 100.416ZM667.016 124.016C680.349 130.282 680.216 153.082 666.882 158.682C663.549 160.016 656.482 160.549 640.882 160.549H619.549V141.216V121.882H641.016C657.949 121.882 663.416 122.282 667.016 124.016Z" fill="#F91F2B"/>
<path d="M768.882 100.949C745.282 108.949 728.749 128.015 724.616 152.282C718.882 186.015 741.949 219.615 775.549 226.682C781.949 228.015 790.882 228.549 802.616 228.282L820.216 227.882V215.882V203.882L799.549 203.215C777.149 202.549 771.682 201.082 762.482 193.215C758.616 189.882 750.216 177.482 750.216 174.949C750.216 174.415 765.949 173.749 785.282 173.615L820.216 173.215L820.349 162.815L820.482 152.549H786.082C767.149 152.549 751.416 152.149 751.016 151.482C749.816 149.482 754.216 141.749 760.216 135.349C770.082 124.815 776.349 122.815 800.616 122.149L820.882 121.615V109.749V97.8818H799.282C780.349 97.8818 776.349 98.2818 768.882 100.949Z" fill="#F91F2B"/>
<path d="M1025.15 100.682C1022.08 102.282 1017.68 105.615 1015.55 108.282C1008.08 117.349 1007.15 122.282 1006.48 156.015C1005.95 188.815 1007.15 202.549 1011.42 210.949C1016.22 220.149 1026.08 227.082 1035.28 227.615L1040.22 227.882L1040.62 219.882C1041.02 212.149 1040.88 211.749 1037.15 210.415C1029.55 207.482 1028.88 203.482 1028.88 162.949C1028.88 122.815 1029.55 119.082 1037.28 115.482C1040.62 113.882 1040.88 113.082 1040.88 105.749V97.8818H1035.95C1033.15 97.8818 1028.35 99.2148 1025.15 100.682Z" fill="#0E0E0E"/>
<path d="M1044.88 106.415C1044.88 113.749 1045.28 114.949 1047.55 115.615C1051.55 116.682 1054.22 124.415 1054.88 136.815L1055.42 147.882H1065.82H1076.22L1076.08 136.282C1075.95 129.482 1074.88 121.882 1073.55 117.882C1069.82 106.815 1058.75 97.8818 1048.75 97.8818C1044.88 97.8818 1044.88 97.8818 1044.88 106.415Z" fill="#0E0E0E"/>
<path d="M883.549 173.216V228.549H894.882H906.216V173.216V117.882H894.882H883.549V173.216Z" fill="#0E0E0E"/>
<path d="M967.549 160.549V168.549H975.549H983.549V160.549V152.549H975.549H967.549V160.549Z" fill="#0E0E0E"/>
<path d="M1055.15 188.549C1054.22 201.082 1051.95 207.482 1047.55 210.282C1045.28 211.616 1044.88 213.349 1044.88 220.416V228.816L1049.95 227.882C1057.82 226.416 1065.82 221.082 1069.55 214.682C1074.22 206.816 1075.28 202.282 1076.35 188.282L1077.28 176.549H1066.62H1055.95L1055.15 188.549Z" fill="#0E0E0E"/>
<path d="M967.549 220.549V228.549H980.216H992.882V220.549V212.549H980.216H967.549V220.549Z" fill="#0E0E0E"/>
</g>
<defs>
<clipPath id="clip0_8_392">
<rect width="1190.55" height="324.764" fill="white"/>
</clipPath>
</defs>
</svg>
