<svg xmlns="http://www.w3.org/2000/svg" width="42" height="43" viewBox="0 0 42 43">
    <g id="Group_44880" transform="translate(-369 -631)">
        <g id="Group_44725" transform="translate(369 631)">
            <ellipse id="Oval" cx="21" cy="21.5" rx="21" ry="21.5" fill="#E81B23" />
            <g id="LOGOUT" transform="translate(7 9.501)">
                <path id="Path_43362" d="M15,12H2m0,0L5.5,9M2,12l3.5,3" fill="none" stroke="#fff"
                    stroke-linecap="round" stroke-linejoin="round" stroke-width="1.5" />
                <path id="Path_43363"
                    d="M9,7c.012-2.175.109-3.353.877-4.121C10.758,2,12.172,2,15,2h1c2.828,0,4.243,0,5.121.879S22,5.172,22,8v8c0,2.828,0,4.243-.879,5.121-.768.768-1.946.865-4.122.877M9,17c.012,2.175.109,3.353.877,4.121.641.641,1.568.815,3.121.861"
                    fill="none" stroke="#fff" stroke-linecap="round" stroke-width="1.5" />
            </g>
        </g>
    </g>
</svg>
