<svg width="129" height="25" viewBox="0 0 129 25" fill="none" xmlns="http://www.w3.org/2000/svg">
<path d="M11.1448 1.68202C5.95891 2.4102 1.98336 6.74983 1.72748 11.9751C1.5012 16.6788 4.21716 20.9201 8.57642 22.6618C10.023 23.2325 10.8299 23.3703 12.6701 23.3703C14.1559 23.3604 14.4512 23.3309 15.327 23.1046C16.5964 22.7602 18.4365 21.845 19.4107 21.0578C19.8142 20.733 20.1586 20.4182 20.1685 20.3493C20.1882 20.2804 19.893 19.8966 19.519 19.4932L18.84 18.7551L18.4562 19.07C17.728 19.69 16.6062 20.3887 15.8682 20.6642C12.5913 21.9238 8.92086 21.1858 6.46078 18.7551C4.75836 17.0823 3.8629 14.9272 3.8629 12.5065C3.8629 9.12137 5.70304 6.16924 8.73391 4.68334C10.0525 4.04371 10.7709 3.84691 12.1485 3.77802C14.2544 3.65994 16.3405 4.29957 17.8855 5.51978C18.161 5.72642 18.4857 5.99212 18.6235 6.09052L18.8695 6.28733L19.5583 5.49025L20.2373 4.70303L19.7059 4.22084C18.5645 3.19744 16.9211 2.361 15.1892 1.91818C14.1166 1.64265 12.2174 1.53441 11.1448 1.68202Z" fill="#DF1C41"/>
<path d="M20.2277 6.08149C19.9128 6.45542 19.6078 6.80968 19.5684 6.87857C19.5192 6.95729 19.6471 7.24266 19.8932 7.6166C20.887 9.15169 21.3692 10.736 21.3791 12.4876C21.3791 14.2491 20.9165 15.853 20.0014 17.2503C19.7357 17.6636 19.5094 18.0376 19.5094 18.0868C19.5192 18.1262 19.8242 18.5001 20.1982 18.9035L20.887 19.6416L21.2216 19.248C22.0679 18.2738 22.9732 16.3746 23.3176 14.8788C23.5243 13.9538 23.5932 11.8775 23.4554 10.9525C23.2291 9.53547 22.678 8.01018 21.94 6.79984C21.625 6.2783 20.9756 5.42218 20.887 5.42218C20.8477 5.42218 20.5525 5.71739 20.2277 6.08149Z" fill="#161616"/>
<path d="M11.5393 7.44825C8.87254 8.01898 7.08163 10.607 7.48504 13.264C7.92786 16.098 10.575 18.066 13.3893 17.6429C14.3143 17.4953 15.5641 16.9147 16.0856 16.3735L16.4497 15.9995L15.7609 15.2025L15.0819 14.4054L14.7375 14.7203C14.1273 15.3009 13.5664 15.5076 12.6217 15.5076C11.618 15.5076 11.0965 15.291 10.4076 14.6022C8.99062 13.1655 9.43344 10.7448 11.2835 9.77055C11.7165 9.54427 11.9034 9.50486 12.6217 9.50486C13.5664 9.50486 14.0585 9.7017 14.6981 10.3019L15.0524 10.6464L15.7609 9.8296L16.4694 9.01289L16.0167 8.59959C15.4361 8.06821 14.5308 7.62538 13.655 7.4384C12.8186 7.26128 12.3758 7.26128 11.5393 7.44825Z" fill="#DF1C41"/>
<path d="M16.3309 10.5384C15.4748 11.5126 14.7565 12.3786 14.7269 12.4573C14.658 12.6148 17.8168 16.2655 17.9743 16.2164C18.1514 16.1671 18.8009 14.7698 18.978 14.0809C19.1945 13.2445 19.1945 11.7685 18.9878 10.932C18.8107 10.2629 18.1514 8.85567 17.9841 8.79662C17.9251 8.77699 17.187 9.56418 16.3309 10.5384Z" fill="#161616"/>
<path d="M41.3222 10.8082H38.8668C38.7968 10.4055 38.6677 10.0488 38.4795 9.73807C38.2913 9.42294 38.0571 9.15595 37.777 8.93711C37.4969 8.71827 37.1774 8.55414 36.8185 8.44472C36.4639 8.33092 36.081 8.27402 35.6695 8.27402C34.9386 8.27402 34.2908 8.45785 33.7262 8.8255C33.1616 9.18878 32.7196 9.72275 32.4001 10.4274C32.0806 11.1277 31.9208 11.9834 31.9208 12.9944C31.9208 14.023 32.0806 14.8896 32.4001 15.5943C32.7239 16.2945 33.166 16.8241 33.7262 17.183C34.2908 17.5376 34.9364 17.7148 35.663 17.7148C36.0657 17.7148 36.4421 17.6623 36.7922 17.5573C37.1467 17.4478 37.464 17.2881 37.7442 17.078C38.0287 16.8679 38.2672 16.6097 38.4598 16.3033C38.6567 15.9969 38.7924 15.6468 38.8668 15.2529L41.3222 15.266C41.2303 15.905 41.0312 16.5046 40.7248 17.0649C40.4228 17.6251 40.0267 18.1197 39.5365 18.5486C39.0463 18.9732 38.4729 19.3058 37.8164 19.5465C37.1599 19.7829 36.4311 19.9011 35.6302 19.9011C34.4484 19.9011 33.3936 19.6275 32.4657 19.0804C31.5378 18.5333 30.8069 17.7433 30.2729 16.7103C29.739 15.6774 29.472 14.4388 29.472 12.9944C29.472 11.5457 29.7411 10.3071 30.2795 9.2785C30.8178 8.24557 31.551 7.45556 32.4788 6.90845C33.4067 6.36135 34.4572 6.0878 35.6302 6.0878C36.3786 6.0878 37.0745 6.19284 37.7179 6.40293C38.3613 6.61302 38.9347 6.92159 39.438 7.32863C39.9413 7.7313 40.3549 8.22588 40.6788 8.81237C41.0071 9.39449 41.2215 10.0598 41.3222 10.8082ZM46.922 19.9142C45.9372 19.9142 45.0838 19.6975 44.3616 19.2642C43.6394 18.8309 43.0792 18.2247 42.6809 17.4457C42.287 16.6666 42.09 15.7562 42.09 14.7145C42.09 13.6728 42.287 12.7603 42.6809 11.9768C43.0792 11.1934 43.6394 10.585 44.3616 10.1517C45.0838 9.71837 45.9372 9.50172 46.922 9.50172C47.9068 9.50172 48.7603 9.71837 49.4825 10.1517C50.2046 10.585 50.7627 11.1934 51.1566 11.9768C51.5549 12.7603 51.754 13.6728 51.754 14.7145C51.754 15.7562 51.5549 16.6666 51.1566 17.4457C50.7627 18.2247 50.2046 18.8309 49.4825 19.2642C48.7603 19.6975 47.9068 19.9142 46.922 19.9142ZM46.9352 18.0103C47.4691 18.0103 47.9156 17.8636 48.2745 17.5704C48.6334 17.2728 48.9004 16.8745 49.0754 16.3755C49.2549 15.8766 49.3446 15.3207 49.3446 14.708C49.3446 14.0908 49.2549 13.5328 49.0754 13.0338C48.9004 12.5305 48.6334 12.13 48.2745 11.8324C47.9156 11.5348 47.4691 11.3859 46.9352 11.3859C46.3881 11.3859 45.9329 11.5348 45.5696 11.8324C45.2107 12.13 44.9415 12.5305 44.7621 13.0338C44.587 13.5328 44.4995 14.0908 44.4995 14.708C44.4995 15.3207 44.587 15.8766 44.7621 16.3755C44.9415 16.8745 45.2107 17.2728 45.5696 17.5704C45.9329 17.8636 46.3881 18.0103 46.9352 18.0103ZM52.8468 19.7172V9.63303H55.1512V11.3137H55.2563C55.4401 10.7316 55.7552 10.283 56.2017 9.96785C56.6525 9.64835 57.1667 9.48859 57.7445 9.48859C57.8758 9.48859 58.0224 9.49516 58.1844 9.50829C58.3507 9.51704 58.4885 9.53236 58.598 9.55424V11.7405C58.4973 11.7055 58.3375 11.6748 58.1187 11.6486C57.9042 11.6179 57.6963 11.6026 57.495 11.6026C57.0617 11.6026 56.6722 11.6967 56.3264 11.8849C55.985 12.0687 55.7158 12.3248 55.5189 12.653C55.3219 12.9813 55.2234 13.3599 55.2234 13.7888V19.7172H52.8468ZM63.3016 19.9142C62.2906 19.9142 61.4174 19.7041 60.6821 19.2839C59.9512 18.8594 59.3887 18.2597 58.9948 17.485C58.6009 16.706 58.404 15.789 58.404 14.7342C58.404 13.6969 58.6009 12.7865 58.9948 12.0031C59.3931 11.2152 59.949 10.6025 60.6624 10.1648C61.3758 9.72275 62.214 9.50172 63.1769 9.50172C63.7984 9.50172 64.3849 9.60239 64.9364 9.80372C65.4922 10.0007 65.9824 10.3071 66.407 10.7229C66.8359 11.1387 67.1729 11.6682 67.418 12.3116C67.6631 12.9507 67.7857 13.7122 67.7857 14.5963V15.3251H59.5201V13.7232H65.5075C65.5032 13.268 65.4047 12.8631 65.2121 12.5086C65.0195 12.1497 64.7504 11.8674 64.4046 11.6617C64.0632 11.456 63.6649 11.3531 63.2097 11.3531C62.7239 11.3531 62.2971 11.4713 61.9295 11.7076C61.5618 11.9396 61.2752 12.246 61.0694 12.6268C60.8681 13.0032 60.7653 13.4168 60.7609 13.8676V15.266C60.7609 15.8525 60.8681 16.3558 61.0826 16.776C61.297 17.1918 61.5969 17.5113 61.982 17.7345C62.3672 17.9534 62.818 18.0628 63.3345 18.0628C63.6802 18.0628 63.9932 18.0146 64.2733 17.9184C64.5534 17.8177 64.7963 17.6711 65.002 17.4785C65.2077 17.2859 65.3631 17.0474 65.4682 16.7629L67.6872 17.0123C67.5471 17.5988 67.2802 18.1109 66.8862 18.5486C66.4967 18.9819 65.9978 19.3189 65.3894 19.5597C64.781 19.796 64.0851 19.9142 63.3016 19.9142ZM72.0475 8.31341V6.27163H82.7751V8.31341H78.6193V19.7172H76.2033V8.31341H72.0475ZM86.8157 19.9142C85.8046 19.9142 84.9314 19.7041 84.1961 19.2839C83.4652 18.8594 82.9028 18.2597 82.5089 17.485C82.115 16.706 81.918 15.789 81.918 14.7342C81.918 13.6969 82.115 12.7865 82.5089 12.0031C82.9072 11.2152 83.463 10.6025 84.1764 10.1648C84.8899 9.72275 85.728 9.50172 86.6909 9.50172C87.3124 9.50172 87.8989 9.60239 88.4504 9.80372C89.0063 10.0007 89.4965 10.3071 89.921 10.7229C90.3499 11.1387 90.687 11.6682 90.9321 12.3116C91.1772 12.9507 91.2997 13.7122 91.2997 14.5963V15.3251H83.0341V13.7232H89.0216C89.0172 13.268 88.9187 12.8631 88.7261 12.5086C88.5336 12.1497 88.2644 11.8674 87.9186 11.6617C87.5772 11.456 87.1789 11.3531 86.7238 11.3531C86.2379 11.3531 85.8112 11.4713 85.4435 11.7076C85.0759 11.9396 84.7892 12.246 84.5835 12.6268C84.3822 13.0032 84.2793 13.4168 84.2749 13.8676V15.266C84.2749 15.8525 84.3822 16.3558 84.5966 16.776C84.8111 17.1918 85.1109 17.5113 85.4961 17.7345C85.8812 17.9534 86.332 18.0628 86.8485 18.0628C87.1943 18.0628 87.5072 18.0146 87.7873 17.9184C88.0674 17.8177 88.3103 17.6711 88.5161 17.4785C88.7218 17.2859 88.8771 17.0474 88.9822 16.7629L91.2012 17.0123C91.0612 17.5988 90.7942 18.1109 90.4003 18.5486C90.0107 18.9819 89.5118 19.3189 88.9034 19.5597C88.295 19.796 87.5991 19.9142 86.8157 19.9142ZM96.7846 19.9142C95.778 19.9142 94.9136 19.6932 94.1914 19.2511C93.4736 18.809 92.9199 18.1985 92.5304 17.4194C92.1452 16.6359 91.9526 15.7343 91.9526 14.7145C91.9526 13.6903 92.1496 12.7865 92.5435 12.0031C92.9374 11.2152 93.4933 10.6025 94.2111 10.1648C94.9332 9.72275 95.7867 9.50172 96.7715 9.50172C97.59 9.50172 98.3143 9.65272 98.9446 9.95472C99.5792 10.2523 100.085 10.6747 100.461 11.2218C100.838 11.7645 101.052 12.3992 101.105 13.1257H98.833C98.7411 12.6399 98.5222 12.235 98.1765 11.9112C97.8351 11.5829 97.3777 11.4188 96.8043 11.4188C96.3185 11.4188 95.8918 11.5501 95.5241 11.8127C95.1565 12.0709 94.8698 12.4429 94.6641 12.9288C94.4627 13.4146 94.3621 13.9967 94.3621 14.6751C94.3621 15.3623 94.4627 15.9532 94.6641 16.4477C94.8654 16.9379 95.1477 17.3165 95.511 17.5835C95.8786 17.8461 96.3098 17.9774 96.8043 17.9774C97.1545 17.9774 97.4674 17.9118 97.7432 17.7805C98.0233 17.6448 98.2574 17.45 98.4456 17.1962C98.6338 16.9423 98.763 16.6338 98.833 16.2705H101.105C101.048 16.9839 100.838 17.6163 100.474 18.1678C100.111 18.7149 99.6164 19.1439 98.9906 19.4546C98.3647 19.761 97.6294 19.9142 96.7846 19.9142ZM104.508 13.8085V19.7172H102.132V6.27163H104.456V11.3466H104.574C104.81 10.7776 105.176 10.3289 105.67 10.0007C106.169 9.66804 106.804 9.50172 107.574 9.50172C108.275 9.50172 108.885 9.64835 109.406 9.94159C109.927 10.2348 110.329 10.6638 110.614 11.2284C110.903 11.793 111.047 12.4823 111.047 13.2964V19.7172H108.671V13.6641C108.671 12.9857 108.496 12.4583 108.145 12.0819C107.8 11.7011 107.314 11.5107 106.688 11.5107C106.268 11.5107 105.891 11.6026 105.559 11.7864C105.23 11.9659 104.972 12.2263 104.784 12.5677C104.6 12.9091 104.508 13.3227 104.508 13.8085Z" fill="#F7FCFD"/>
</svg>
