<svg width="295" height="295" viewBox="0 0 295 295" fill="none" xmlns="http://www.w3.org/2000/svg">
<g clip-path="url(#clip0_5761_44979)">
<path d="M127.333 1.00012C57.0666 10.8667 3.19955 69.6667 -0.26745 140.467C-3.33345 204.2 33.4665 261.667 92.5325 285.267C112.133 293 123.067 294.867 148 294.867C168.133 294.733 172.133 294.333 184 291.267C201.2 286.6 226.133 274.2 239.333 263.533C244.8 259.133 249.467 254.867 249.6 253.933C249.867 253 245.867 247.8 240.8 242.333L231.6 232.333L226.4 236.6C216.533 245 201.333 254.467 191.333 258.2C146.933 275.267 97.1996 265.267 63.8666 232.333C40.7996 209.667 28.6665 180.467 28.6665 147.667C28.6665 101.8 53.5995 61.8 94.6665 41.6667C112.533 33 122.267 30.3334 140.933 29.4C169.467 27.8 197.733 36.4667 218.667 53C222.4 55.8 226.8 59.4 228.667 60.7334L232 63.4L241.333 52.6L250.533 41.9334L243.333 35.4C227.867 21.5334 205.6 10.2 182.133 4.20002C167.6 0.466722 141.867 -0.99988 127.333 1.00012Z" fill="#E30512"/>
<path d="M250.4 60.6004C246.133 65.667 242 70.467 241.467 71.4004C240.8 72.467 242.533 76.3337 245.867 81.4004C259.333 102.2 265.867 123.667 266 147.4C266 171.267 259.733 193 247.333 211.933C243.733 217.533 240.667 222.6 240.667 223.267C240.8 223.8 244.933 228.867 250 234.333L259.333 244.333L263.867 239C275.333 225.8 287.6 200.067 292.267 179.8C295.067 167.267 296 139.133 294.133 126.6C291.067 107.4 283.6 86.7332 273.6 70.3337C269.333 63.267 260.533 51.667 259.333 51.667C258.8 51.667 254.8 55.667 250.4 60.6004Z" fill="black"/>
<path d="M132.667 79.1339C96.533 86.8671 72.267 121.934 77.733 157.934C83.733 196.334 119.6 223 157.733 217.267C170.267 215.267 187.2 207.4 194.267 200.067L199.2 195L189.867 184.2L180.667 173.4L176 177.667C167.733 185.534 160.133 188.334 147.333 188.334C133.733 188.334 126.667 185.4 117.333 176.067C98.133 156.6 104.133 123.8 129.2 110.6C135.067 107.534 137.6 107 147.333 107C160.133 107 166.8 109.667 175.467 117.8L180.267 122.467L189.867 111.4L199.467 100.334L193.333 94.7341C185.467 87.5341 173.2 81.5339 161.333 79.0005C150 76.6005 144 76.6005 132.667 79.1339Z" fill="#E30512"/>
<path d="M197.6 121C186 134.2 176.267 145.934 175.867 147C174.933 149.134 217.733 198.6 219.867 197.934C222.267 197.267 231.067 178.334 233.467 169C236.4 157.667 236.4 137.667 233.6 126.334C231.2 117.267 222.267 98.2004 220 97.4004C219.2 97.1344 209.2 107.8 197.6 121Z" fill="black"/>
</g>
<defs>
<clipPath id="clip0_5761_44979">
<rect width="295" height="295" fill="white"/>
</clipPath>
</defs>
</svg>
