<svg width="879" height="157" viewBox="0 0 879 157" fill="none" xmlns="http://www.w3.org/2000/svg">
<path d="M551.6 13.467C551.067 14 550.667 18 550.667 22.267V30H583.333H616.133L615.733 21.6L615.333 13.333L583.867 12.933C566.667 12.8 552.133 13.067 551.6 13.467Z" fill="#0E0E0E"/>
<path d="M628.667 14.267C628.267 15.2 628.133 44.8 628.267 80L628.667 144H640H651.333V78.667V13.333L640.267 12.933C632.267 12.667 629.067 13.067 628.667 14.267Z" fill="#0E0E0E"/>
<path d="M656.933 13.467C656.4 14 656 17.6 656 21.6V28.667H668.667H681.467L681.067 20.934L680.667 13.334L669.333 12.934C663.067 12.8 657.467 12.934 656.933 13.467Z" fill="#0E0E0E"/>
<path d="M778 13.734C777.067 14.667 777.333 136.534 778.267 141.067L778.933 144.8L789.867 144.4L800.667 144V78.8V13.6L789.6 13.334C783.6 13.2 778.4 13.467 778 13.734Z" fill="#0E0E0E"/>
<path d="M825.867 13.867C825.6 14.134 825.333 26.934 825.333 42.267V70H815.333H805.333V77.334V84.667H815.333H825.333V114.667V144.667H836.667H848V78.534V12.4L837.2 12.934C831.333 13.2 826.133 13.6 825.867 13.867Z" fill="#0E0E0E"/>
<path d="M76.6666 15.867C65.0666 19.6 57.7333 24.134 48.5333 33.2C34.5333 47.2 29.4666 59.6 29.3333 79.467C29.3333 103.734 42.1333 124.934 64 136.534C75.0666 142.4 86.8 144.667 107.733 144.667H125.333V132.134V119.6L104.4 119.067C84.6666 118.667 82.9333 118.4 76.5333 115.067C54.8 103.734 47.8666 78.8 60.4 57.867C69.2 43.2 82 38 108.933 38H125.333V26V14L103.733 14.134C90 14.134 80 14.8 76.6666 15.867Z" fill="#F91F2B"/>
<path d="M185.333 16.534C173.467 20.4 166.533 24.534 157.867 33.2C149.067 42.134 142.667 53.867 140.133 65.734C132.667 101.334 157.333 137.2 193.467 143.334C236.933 150.667 275.867 113.334 269.467 70.267C265.733 44.934 248.133 24 224.4 16.667C213.2 13.2 195.733 13.2 185.333 16.534ZM222.267 42.8C238.933 50.8 248.667 71.2 244 88.267C239.067 106 224.933 117.734 206.8 118.934C171.067 121.467 150.4 79.2 174.4 52.534C187.2 38.4 205.2 34.667 222.267 42.8Z" fill="#F91F2B"/>
<path d="M293.333 16.534C290.667 18 287.467 21.334 285.733 24.667L282.667 30.534L282.933 87.2L283.333 144L295.6 144.4L308 144.8L308.267 123.067L308.667 101.334L320.133 100.934L331.6 100.534L350.8 122.667L370 144.667H384.4C393.067 144.667 398.667 144.134 398.4 143.334C398.267 142.667 389.333 132.4 378.8 120.667C368.267 108.8 360.133 98.667 360.8 98.134C361.467 97.6 364.933 96 368.533 94.667C376.8 91.6 383.867 85.334 388 77.067C390.933 71.467 391.333 68.934 391.333 57.334C391.333 45.467 390.933 43.334 387.733 37.2C382.8 27.867 373.733 20.134 363.6 16.8C356.4 14.267 352.267 14 326.667 14C301.2 14 297.467 14.267 293.333 16.534ZM355.467 40.134C368.8 46.4 368.667 69.2 355.333 74.8C352 76.134 344.933 76.667 329.333 76.667H308V57.334V38H329.467C346.4 38 351.867 38.4 355.467 40.134Z" fill="#F91F2B"/>
<path d="M457.333 17.067C433.733 25.067 417.2 44.133 413.067 68.4C407.333 102.133 430.4 135.733 464 142.8C470.4 144.133 479.333 144.667 491.067 144.4L508.667 144V132V120L488 119.333C465.6 118.667 460.133 117.2 450.933 109.333C447.067 106 438.667 93.6 438.667 91.067C438.667 90.533 454.4 89.867 473.733 89.733L508.667 89.333L508.8 78.933L508.933 68.667H474.533C455.6 68.667 439.867 68.267 439.467 67.6C438.267 65.6 442.667 57.867 448.667 51.467C458.533 40.933 464.8 38.933 489.067 38.267L509.333 37.733V25.867V14H487.733C468.8 14 464.8 14.4 457.333 17.067Z" fill="#F91F2B"/>
<path d="M713.6 16.8C710.533 18.4 706.133 21.733 704 24.4C696.533 33.467 695.6 38.4 694.933 72.133C694.4 104.933 695.6 118.667 699.867 127.067C704.667 136.267 714.533 143.2 723.733 143.733L728.667 144L729.067 136C729.467 128.267 729.333 127.867 725.6 126.533C718 123.6 717.333 119.6 717.333 79.067C717.333 38.933 718 35.2 725.733 31.6C729.067 30 729.333 29.2 729.333 21.867V14H724.4C721.6 14 716.8 15.333 713.6 16.8Z" fill="#0E0E0E"/>
<path d="M733.333 22.533C733.333 29.867 733.733 31.067 736 31.733C740 32.8 742.667 40.533 743.333 52.933L743.867 64H754.267H764.667L764.533 52.4C764.4 45.6 763.333 38 762 34C758.267 22.933 747.2 14 737.2 14C733.333 14 733.333 14 733.333 22.533Z" fill="#0E0E0E"/>
<path d="M572 89.334V144.667H583.333H594.667V89.334V34H583.333H572V89.334Z" fill="#0E0E0E"/>
<path d="M656 76.667V84.667H664H672V76.667V68.667H664H656V76.667Z" fill="#0E0E0E"/>
<path d="M743.6 104.667C742.667 117.2 740.4 123.6 736 126.4C733.733 127.734 733.333 129.467 733.333 136.534V144.934L738.4 144C746.267 142.534 754.267 137.2 758 130.8C762.667 122.934 763.733 118.4 764.8 104.4L765.733 92.667H755.067H744.4L743.6 104.667Z" fill="#0E0E0E"/>
<path d="M656 136.667V144.667H668.667H681.333V136.667V128.667H668.667H656V136.667Z" fill="#0E0E0E"/>
</svg>
