<svg width="23" height="22" viewBox="0 0 23 22" fill="none" xmlns="http://www.w3.org/2000/svg">
    <path d="M12.7739 5.29191C12.3736 5.18527 11.9627 5.42329 11.8561 5.82354C11.7494 6.22379 11.9874 6.63471 12.3877 6.74135L17.1606 8.01303C17.5608 8.11968 17.9718 7.88166 18.0784 7.48141C18.185 7.08116 17.947 6.67024 17.5468 6.5636L12.7739 5.29191Z" fill="#6C737F"/>
    <path d="M11.7508 9.08871C11.3505 8.98207 10.9396 9.22009 10.8329 9.62034C10.7263 10.0206 10.9643 10.4315 11.3646 10.5381L13.751 11.174C14.1513 11.2806 14.5622 11.0426 14.6688 10.6424C14.7755 10.2421 14.5375 9.8312 14.1372 9.72455L11.7508 9.08871Z" fill="#6C737F"/>
    <path fill-rule="evenodd" clip-rule="evenodd" d="M16.9693 1.32299L15.9093 1.04056C14.604 0.692775 13.5515 0.412322 12.6938 0.302417C11.8032 0.188307 11.0122 0.241126 10.282 0.660376C9.55106 1.07998 9.10853 1.73596 8.76196 2.56152C8.42853 3.35578 8.14636 4.403 7.7968 5.70028L6.74506 9.6033C6.39548 10.9005 6.11327 11.9477 6.00264 12.8014C5.88766 13.6886 5.94083 14.478 6.3638 15.2065C6.7864 15.9343 7.44607 16.3738 8.27463 16.7177C9.07277 17.049 10.1253 17.3294 11.4304 17.6771L12.4906 17.9596C13.7957 18.3074 14.8483 18.5878 15.706 18.6977C16.5966 18.8118 17.3876 18.759 18.1178 18.3398C18.8487 17.9202 19.2913 17.2642 19.6378 16.4386C19.9713 15.6444 20.2534 14.5972 20.603 13.2999L21.6547 9.39685C22.0043 8.09966 22.2865 7.05243 22.3972 6.19873C22.5121 5.31151 22.459 4.52211 22.036 3.79364C21.6134 3.06579 20.9537 2.62636 20.1252 2.28244C19.327 1.95114 18.2744 1.67071 16.9693 1.32299ZM11.0288 1.96124C11.362 1.76993 11.7778 1.69732 12.5031 1.79025C13.2497 1.88592 14.2054 2.13891 15.5757 2.50403L16.5303 2.75836C17.9007 3.12349 18.8555 3.37952 19.5501 3.66783C20.225 3.94798 20.5474 4.21714 20.7388 4.54682C20.9299 4.87588 21.0028 5.28642 20.9096 6.00595C20.8135 6.74737 20.5593 7.69676 20.1921 9.05972L19.169 12.8565C18.8017 14.2194 18.5444 15.1681 18.2548 15.858C17.9737 16.5275 17.7036 16.8479 17.371 17.0389C17.0378 17.2302 16.622 17.3028 15.8967 17.2099C15.1501 17.1142 14.1944 16.8612 12.824 16.4961L11.8695 16.2418C10.4991 15.8767 9.54428 15.6206 8.84968 15.3323C8.17475 15.0522 7.85241 14.783 7.66099 14.4533C7.46994 14.1243 7.39696 13.7137 7.4902 12.9942C7.58628 12.2528 7.84045 11.3034 8.20772 9.94042L9.23084 6.14362C9.5981 4.7807 9.85539 3.83209 10.145 3.14214C10.4261 2.47269 10.6962 2.1522 11.0288 1.96124Z" fill="#6C737F"/>
    <path d="M5.19985 5.25041L5.02688 5.25027C4.36441 5.24942 3.67858 5.24854 3.09563 5.36454C2.42062 5.49886 1.76743 5.8109 1.35956 6.52882C0.941119 7.26536 0.888078 8.063 1.00228 8.96365C1.1124 9.83211 1.39354 10.8983 1.74272 12.2226L2.79108 16.1987C3.14017 17.5228 3.42129 18.589 3.75329 19.3973C4.09743 20.2351 4.53704 20.9024 5.26656 21.3305C5.99786 21.7595 6.79097 21.8136 7.68199 21.6969C8.53882 21.5847 9.58974 21.2985 10.8909 20.9442L11.897 20.6702C12.2966 20.5614 12.5324 20.1492 12.4236 19.7495C12.3147 19.3498 11.9025 19.1141 11.5029 19.2229L10.5505 19.4822C9.1829 19.8546 8.2307 20.1122 7.48722 20.2096C6.76617 20.304 6.35536 20.2302 6.02564 20.0367C5.69413 19.8422 5.42279 19.5139 5.1408 18.8274C4.85105 18.122 4.59388 17.1527 4.22766 15.7637L3.20694 11.8925C2.84074 10.5036 2.58653 9.53336 2.49036 8.77496C2.39683 8.03734 2.46965 7.61149 2.66378 7.26977C2.78582 7.05496 2.97675 6.91761 3.38838 6.8357C3.81859 6.75009 4.35794 6.75022 5.08415 6.75039L5.19996 6.75041C5.61418 6.75038 5.94994 6.41457 5.94991 6.00035C5.94987 5.58614 5.61406 5.25038 5.19985 5.25041Z" fill="#6C737F"/>
</svg>
