<svg width="22" height="22" viewBox="0 0 22 22" fill="none" xmlns="http://www.w3.org/2000/svg">
<path fill-rule="evenodd" clip-rule="evenodd" d="M16.1402 1.32287C17.4453 1.67059 18.4979 1.95101 19.2961 2.28231C20.1246 2.62623 20.7843 3.06567 21.2069 3.79352C21.6299 4.52199 21.683 5.31139 21.568 6.19861C21.4574 7.05231 21.1752 8.09953 20.8256 9.39672L19.7739 13.2997C19.4243 14.597 19.1422 15.6442 18.8087 16.4385C18.4622 17.2641 18.0196 17.92 17.2887 18.3396C16.5584 18.7589 15.7675 18.8117 14.8769 18.6976C14.0192 18.5877 12.9667 18.3073 11.6615 17.9595L10.6014 17.677C9.29627 17.3293 8.24369 17.0489 7.44553 16.7176C6.61697 16.3737 5.9573 15.9342 5.5347 15.2064C5.11173 14.4779 5.05856 13.6885 5.17354 12.8013C5.28417 11.9476 5.56638 10.9004 5.91596 9.60317L6.9677 5.70016C7.31725 4.40287 7.59943 3.35566 7.93286 2.5614C8.27943 1.73583 8.72196 1.07986 9.45286 0.660254C10.1831 0.241004 10.9741 0.188185 11.8647 0.302294C12.7224 0.4122 13.7749 0.692653 15.0801 1.04043L16.1402 1.32287ZM11.0269 5.82272C11.1335 5.42247 11.5444 5.18446 11.9447 5.2911L16.7176 6.56279C17.1178 6.66943 17.3558 7.08034 17.2492 7.48059C17.1426 7.88085 16.7316 8.11886 16.3314 8.01222L11.5585 6.74053C11.1582 6.63389 10.9202 6.22297 11.0269 5.82272ZM10.0037 9.61952C10.1104 9.21927 10.5213 8.98125 10.9215 9.0879L13.308 9.72374C13.7083 9.83038 13.9463 10.2413 13.8396 10.6415C13.733 11.0418 13.3221 11.2798 12.9218 11.1732L10.5354 10.5373C10.1351 10.4307 9.8971 10.0198 10.0037 9.61952Z" fill="#1B7683"/>
<path d="M4.62034 6.20917C5.14993 6.05249 5.45224 5.49615 5.29555 4.96656C5.13887 4.43697 4.58253 4.13467 4.05294 4.29135C2.52513 4.74336 1.2572 5.22933 0.571185 6.41087C0.10958 7.20589 0.0573937 8.05805 0.173585 8.97429C0.284097 9.84574 0.567048 10.9076 0.909518 12.1929L1.95826 16.1292C2.30064 17.4143 2.58354 18.4763 2.92113 19.2866C3.276 20.1385 3.74546 20.8519 4.54275 21.3096C5.33921 21.7668 6.1931 21.814 7.1101 21.694C7.9837 21.5796 9.04921 21.2925 10.3404 20.9445L10.881 20.7989C11.4142 20.6552 11.73 20.1064 11.5863 19.5731C11.4426 19.0399 10.8939 18.7241 10.3606 18.8678L9.88786 18.9951C8.5117 19.366 7.57576 19.616 6.85051 19.7109C6.15342 19.8022 5.80257 19.7267 5.5385 19.5751C5.27527 19.424 5.03551 19.1613 4.76733 18.5175C4.48784 17.8466 4.23788 16.9168 3.87264 15.5459L2.86028 11.7462C2.49506 10.3754 2.24922 9.44437 2.1577 8.72268C2.06991 8.0304 2.14664 7.68059 2.30079 7.4151C2.54201 6.99964 3.03263 6.67891 4.62034 6.20917Z" fill="#1B7683"/>
</svg>
