<svg width="18" height="19" viewBox="0 0 18 19" fill="none" xmlns="http://www.w3.org/2000/svg">
<path d="M5.66667 4.97758C5.32149 4.97758 5.04167 5.2574 5.04167 5.60258C5.04167 5.94776 5.32149 6.22758 5.66667 6.22758H12.3333C12.6785 6.22758 12.9583 5.94776 12.9583 5.60258C12.9583 5.2574 12.6785 4.97758 12.3333 4.97758H5.66667Z" fill="#6C737F"/>
<path d="M5.04167 9.76925C5.04167 9.42407 5.32149 9.14425 5.66667 9.14425H12.3333C12.6785 9.14425 12.9583 9.42407 12.9583 9.76925C12.9583 10.1144 12.6785 10.3942 12.3333 10.3942H5.66667C5.32149 10.3942 5.04167 10.1144 5.04167 9.76925Z" fill="#6C737F"/>
<path d="M5.66667 13.3109C5.32149 13.3109 5.04167 13.5907 5.04167 13.9359C5.04167 14.2811 5.32149 14.5609 5.66667 14.5609H9C9.34518 14.5609 9.625 14.2811 9.625 13.9359C9.625 13.5907 9.34518 13.3109 9 13.3109H5.66667Z" fill="#6C737F"/>
<path fill-rule="evenodd" clip-rule="evenodd" d="M9.48607 0.810913H8.51393C6.88821 0.810903 5.60784 0.810894 4.60737 0.937931C3.58323 1.06797 2.75804 1.34071 2.1046 1.95784C1.44612 2.57974 1.1505 3.37314 1.01046 4.35692C0.874973 5.30865 0.874985 6.52375 0.875 8.05314V11.4853C0.874985 13.0147 0.874973 14.2298 1.01046 15.1816C1.1505 16.1653 1.44612 16.9588 2.1046 17.5807C2.75804 18.1978 3.58323 18.4705 4.60737 18.6006C5.60784 18.7276 6.88822 18.7276 8.51395 18.7276H9.48611C11.1118 18.7276 12.3922 18.7276 13.3926 18.6006C14.4168 18.4705 15.242 18.1978 15.8954 17.5807C16.5539 16.9588 16.8495 16.1654 16.9895 15.1816C17.125 14.2298 17.125 13.0147 17.125 11.4853V8.0532C17.125 6.5238 17.125 5.30866 16.9895 4.35692C16.8495 3.37314 16.5539 2.57974 15.8954 1.95784C15.242 1.34071 14.4168 1.06797 13.3926 0.937931C12.3922 0.810895 11.1118 0.810903 9.48607 0.810913ZM2.96288 2.86661C3.34319 2.50743 3.86676 2.29201 4.76483 2.17797C5.67739 2.0621 6.87833 2.06091 8.55883 2.06091H9.44118C11.1217 2.06091 12.3226 2.0621 13.2352 2.17797C14.1332 2.29201 14.6568 2.50743 15.0371 2.86661C15.4124 3.22102 15.6336 3.70145 15.752 4.53309C15.8735 5.38655 15.875 6.51255 15.875 8.10258V11.4359C15.875 13.0259 15.8735 14.1519 15.752 15.0054C15.6336 15.837 15.4124 16.3175 15.0371 16.6719C14.6568 17.0311 14.1332 17.2465 13.2352 17.3605C12.3226 17.4764 11.1217 17.4776 9.44118 17.4776H8.55883C6.87833 17.4776 5.67739 17.4764 4.76483 17.3605C3.86676 17.2465 3.34319 17.0311 2.96288 16.6719C2.58762 16.3175 2.36637 15.837 2.24798 15.0054C2.12649 14.1519 2.125 13.0259 2.125 11.4359L2.125 8.10258C2.125 6.51255 2.12649 5.38655 2.24798 4.53309C2.36637 3.70145 2.58762 3.22102 2.96288 2.86661Z" fill="#6C737F"/>
</svg>
