<svg width="18" height="17" viewBox="0 0 18 17" fill="none" xmlns="http://www.w3.org/2000/svg">
    <path fill-rule="evenodd" clip-rule="evenodd"
        d="M4.10072 0.893179L4.04859 0.883248C3.38803 0.757418 2.81123 0.647542 2.32597 0.644359C1.78457 0.640808 1.30054 0.767472 0.860669 1.14439C0.408433 1.53191 0.212914 2.03033 0.124213 2.60004C0.0416264 3.13047 0.0416547 3.79804 0.0416884 4.59172L0.0416906 10.6847C0.0416767 11.4181 0.0416653 12.0195 0.093564 12.4953C0.147091 12.986 0.263441 13.4364 0.566039 13.811C0.880933 14.2007 1.3418 14.4055 1.84798 14.556C2.3509 14.7054 3.01293 14.8315 3.83207 14.9874L3.86692 14.9941C5.31931 15.2706 6.43931 15.7087 7.23586 16.1385L7.25135 16.1469C7.65869 16.3667 7.98448 16.5425 8.23371 16.6624C8.36061 16.7234 8.48294 16.7774 8.59676 16.817C8.7034 16.8541 8.84553 16.8943 9.00003 16.8943C9.15452 16.8943 9.29665 16.8541 9.40329 16.817C9.51711 16.7774 9.63945 16.7234 9.76634 16.6624C10.0156 16.5425 10.3413 16.3667 10.7487 16.1469L10.7642 16.1385C11.5607 15.7087 12.6807 15.2706 14.1331 14.9941L14.1679 14.9874C14.987 14.8315 15.6491 14.7054 16.1521 14.556C16.6582 14.4055 17.1191 14.2007 17.434 13.811C17.7366 13.4364 17.853 12.986 17.9065 12.4953C17.9584 12.0195 17.9584 11.4181 17.9584 10.6847V4.59174C17.9584 3.79805 17.9584 3.13048 17.8758 2.60004C17.7871 2.03033 17.5916 1.53191 17.1394 1.14439C16.6995 0.767472 16.2155 0.640808 15.6741 0.644359C15.1888 0.647542 14.612 0.757418 13.9515 0.883248L13.8993 0.893179C11.5265 1.34497 9.88779 2.21182 9.00003 2.93107C8.11226 2.21182 6.47357 1.34497 4.10072 0.893179ZM1.67402 2.09358C1.8348 1.95581 2.00373 1.89227 2.31777 1.89433C2.67523 1.89668 3.13875 1.98248 3.86692 2.12112C6.30036 2.58444 7.77703 3.49517 8.37502 4.0409L8.37502 15.3312C8.22042 15.2494 8.04044 15.1523 7.82949 15.0385C6.91648 14.5458 5.67462 14.0658 4.10072 13.7661C3.23853 13.602 2.63914 13.4871 2.20409 13.3578C1.76518 13.2273 1.60894 13.1128 1.53834 13.0254C1.45544 12.9228 1.37904 12.7526 1.33619 12.3598C1.29257 11.9599 1.29169 11.427 1.29169 10.6484L1.29169 4.64105C1.29169 3.78486 1.29346 3.21541 1.35933 2.79234C1.42079 2.39758 1.5256 2.22076 1.67402 2.09358ZM9.62502 15.3312C9.77963 15.2494 9.95961 15.1523 10.1706 15.0385C11.0836 14.5458 12.3254 14.0658 13.8993 13.7661C14.7615 13.602 15.3609 13.4871 15.796 13.3578C16.2349 13.2273 16.3911 13.1128 16.4617 13.0254C16.5446 12.9228 16.621 12.7526 16.6639 12.3598C16.7075 11.9599 16.7084 11.427 16.7084 10.6484V4.64105C16.7084 3.78486 16.7066 3.21541 16.6407 2.79234C16.5793 2.39758 16.4744 2.22076 16.326 2.09358C16.1653 1.95581 15.9963 1.89227 15.6823 1.89433C15.3248 1.89668 14.8613 1.98248 14.1331 2.12112C11.6997 2.58445 10.223 3.49518 9.62502 4.04091L9.62502 15.3312Z"
        fill="#6C737F" />
</svg>
