<svg width="671" height="504" viewBox="0 0 671 504" fill="none" xmlns="http://www.w3.org/2000/svg">
    <path
        d="M335.251 1L335.847 1.19849L342.794 22.4365L365.223 22.6351L346.962 36.1322L354.108 57.5687L353.512 57.3702L340.412 47.8428L337.236 45.8579C337.051 44.8788 336.257 44.4818 334.854 44.6671L316.991 57.7671L317.189 57.1716L323.938 36.1322L305.677 22.6351L328.304 22.238L335.251 1Z"
        fill="#B8A57B" stroke="#B8A57B" stroke-width="0.396974" />
    <path
        d="M244.741 18.4668L259.429 35.5366L280.072 27.2002L280.27 27.7957L273.521 38.5139L269.75 44.6671L268.758 46.8503L283.049 63.9202L282.453 64.1187L280.469 63.3247L276.102 62.5308L261.017 58.561L249.108 78.0128L248.314 70.4703L247.718 59.9504L247.321 57.1716C247.586 55.9807 247.387 55.2529 246.726 54.9883L231.641 51.4156L225.091 49.6293L246.13 40.8956L245.138 27.597L244.741 18.4668Z"
        fill="#B8A57B" stroke="#B8A57B" stroke-width="0.396974" />
    <path
        d="M426.555 18.4668L426.753 21.444C426.171 21.7881 426.039 22.5821 426.356 23.8259L425.761 30.7729L425.165 40.8956L438.464 46.6519L445.808 50.0261L431.715 53.4004L426.555 54.5913L424.967 54.9883L423.577 55.5837L421.791 78.0128L409.882 58.561L387.651 63.7217L389.835 61.1414L398.766 50.6216L401.148 47.8428C402.022 47.6575 402.352 46.9298 402.141 45.6594L390.629 27.0018L391.621 26.8033L404.92 32.5594L409.088 34.3458L411.866 35.1396L426.555 18.4668Z"
        fill="#B8A57B" stroke="#B8A57B" stroke-width="0.396974" />
    <path
        d="M168.126 84.3643H194.326H200.677L204.25 84.7611C208.934 85.5022 212.309 87.5532 214.373 90.9142L215.961 94.0901L216.755 97.2657L217.152 103.617V118.305L217.35 124.458L217.946 128.23L218.343 130.214C218.343 132.067 218.74 133.523 219.534 134.581C223.053 146.967 229.074 156.825 237.596 164.156C242.015 168.337 247.176 171.778 253.078 174.477C256.465 176.25 260.303 177.573 264.59 178.447L267.766 179.241L273.72 180.035L275.904 180.233L283.645 180.432L285.63 180.035L289.202 179.638L290.79 179.241C294.178 179.188 296.626 178.196 298.134 176.263C299.484 175.099 300.278 173.379 300.516 171.103L302.898 162.766L309.051 140.337L311.631 130.214C311.234 127.965 310.242 126.311 308.654 125.252C306.034 123.003 301.932 122.209 296.348 122.871L291.584 124.458C289.361 125.279 287.575 126.536 286.225 128.23L283.809 130.682L282.454 125.252L281.66 122.076L281.461 116.717C282.096 113.383 283.618 110.935 286.027 109.373L296.546 104.015L300.715 101.831L305.478 98.2582C312.491 93.8915 321.886 91.9067 333.663 92.3036L342.397 93.8916C350.416 95.6911 356.701 99.1977 361.253 104.411C364.137 107.322 365.725 111.557 366.017 117.115L368.2 133.589L371.971 161.972L372.765 169.515C373.374 169.859 373.506 170.653 373.162 171.897C373.718 174.384 374.843 176.303 376.536 177.653L380.903 179.638C382.173 179.32 382.967 179.452 383.285 180.035L394.797 180.432L396.782 180.035L400.355 179.638C404.933 179.188 408.969 178.195 412.462 176.66C416.697 175.205 420.534 173.352 423.975 171.103C429.241 167.901 433.872 164.063 437.869 159.59L443.228 152.643L446.602 146.887L448.19 143.315C451.975 136.778 453.827 128.309 453.748 117.908V102.029L454.144 97.6627C454.197 95.2015 454.86 93.349 456.13 92.1052C456.923 90.1202 458.18 88.5984 459.901 87.5399C461.462 86.0578 463.579 85.1316 466.252 84.7611L469.825 84.3643H476.177H502.377L504.362 84.7611L508.927 85.3567C515.728 86.7594 521.286 89.4057 525.6 93.296L534.73 102.029L670.098 243.352L636.951 243.55C627.661 241.857 620.714 237.821 616.11 231.443L573.038 179.638L569.267 184.997L648.264 283.446L646.478 283.645L644.89 283.248H640.126L638.539 282.851H634.966L630.996 282.454L623.057 282.057L619.484 281.66L613.529 280.866C606.278 278.987 600.654 275.48 596.658 270.346L551.204 205.044L549.021 206.433L546.242 209.212L624.843 326.319L623.454 326.518L621.866 326.121L615.911 325.327L599.437 323.143L593.68 322.151L589.711 321.357L584.947 319.372C580.792 317.573 577.418 314.992 574.824 311.631L568.87 302.104L559.541 285.63L525.004 225.29L519.248 228.664L594.276 365.222L593.283 365.421L586.535 363.833L568.671 360.26C558.641 358.911 551.165 355.007 546.242 348.55L542.471 342.397L539.494 335.45L530.76 317.189L495.231 240.375L489.078 242.955L538.303 353.71L536.12 353.909L530.363 352.519L517.462 349.939C509.072 348.563 502.655 345.189 498.209 339.816C494.848 336.164 492.399 331.599 490.865 326.121L485.505 311.234L463.473 249.902L459.107 250.696L456.923 251.291L488.681 343.786L486.895 343.984L471.413 340.809C463.632 338.93 457.611 335.291 453.351 329.892C450.334 326.425 448.216 322.058 446.999 316.792L443.823 304.486L430.922 256.253L425.165 258.04L425.562 260.422L427.15 267.17L430.525 280.866L443.823 335.053L443.228 334.854L430.128 332.472C423.538 330.726 418.311 327.616 414.447 323.143C411.033 319.544 408.651 314.913 407.302 309.249L405.714 300.516L401.744 277.889L399.958 268.56L391.621 287.614L389.24 293.172L387.453 298.928C388.062 299.272 388.194 300.066 387.85 301.31C388.194 303.215 388.988 304.671 390.232 305.677L395.393 313.616L415.043 343.191L422.784 354.901L424.967 358.275L425.96 360.459L426.356 365.222L426.753 369.192C426.436 370.595 426.634 371.455 427.349 371.773L428.54 373.36L448.984 393.408L449.182 394.003L502.972 394.202L502.774 417.424L494.437 409.088L492.452 407.103C491.976 406.256 491.05 405.859 489.674 405.912L487.689 406.309H482.925H482.131L481.337 405.912L479.551 406.111L491.063 418.02L477.963 430.723V421.196V418.814L477.367 417.424L475.184 415.241L466.252 406.309L464.267 405.912L463.076 406.309H459.901H455.931L455.137 405.912L442.632 418.02L442.434 428.143L432.311 418.02L429.731 415.44C428.54 414.91 428.407 414.381 429.334 413.852L431.319 411.867L438.861 404.324L440.647 402.935L419.409 381.3L417.425 381.697L411.073 382.491C409.168 382.147 407.712 381.353 406.706 380.109L398.767 374.948L365.024 352.718L365.223 353.313L446.602 463.672L420.997 463.87C412.396 462.282 405.846 458.643 401.347 452.953C399.256 450.678 397.669 447.899 396.583 444.617L390.629 432.311L378.521 405.912C376.272 406.177 374.485 406.905 373.162 408.096L402.935 483.52L390.033 483.719L382.491 482.131C376.695 479.987 371.998 476.745 368.398 472.405L364.032 465.26L362.047 459.305L360.459 450.175L353.512 413.455L348.55 414.447L353.512 454.343L354.703 463.87L355.1 467.046L355.298 475.581C354.24 481.668 352.123 486.696 348.947 490.666L342.397 497.216L335.251 503.171L332.274 500.59L332.075 499.995L321.953 490.666C320.047 488.337 318.592 485.558 317.586 482.33C316.527 480.609 315.932 478.426 315.8 475.78L315.601 467.245L316.196 463.87L317.189 454.541L317.586 452.953L317.983 449.778L319.372 438.861L322.35 414.447L317.387 413.455L312.624 438.464L310.44 449.778L310.043 452.953L308.853 458.908C307.185 466.371 303.811 472.127 298.73 476.176C294.839 479.696 289.811 482.078 283.645 483.322L280.667 483.52L268.163 483.719L267.964 483.123L297.737 408.096C296.414 406.905 294.628 406.177 292.378 405.912L277.095 438.662L273.125 446.999C271.378 450.942 268.93 454.184 265.781 456.725L261.216 459.702L257.444 461.489C255.83 462.653 253.713 463.315 251.093 463.473L248.314 463.87H243.551H224.496L224.297 463.275L306.074 352.916L305.478 352.718L273.125 374.353L264.987 379.712L262.407 381.498C261.639 382.319 260.382 382.65 258.635 382.491L255.261 381.895L251.093 381.697L230.252 402.935L242.161 414.447L228.267 427.944V420.799C228.743 419.026 228.545 417.901 227.671 417.424L225.488 415.241L216.556 406.309H209.014L205.044 405.912L196.112 414.844L193.73 417.226C192.672 417.755 192.407 419.079 192.936 421.196L192.738 430.921L183.211 421.394L180.829 419.012C179.638 418.483 179.505 417.954 180.432 417.424L182.615 415.241L191.348 406.508L191.15 405.912L189.165 406.309L188.371 405.912H187.577L185.592 406.309H181.226L180.432 405.912L179.042 406.508L176.661 408.89L167.927 417.226L168.126 394.003H207.823H217.747C220.473 394.612 222.127 394.149 222.709 392.614L226.878 388.445L244.146 371.177L244.543 363.238L245.337 358.871L247.52 355.894L255.658 343.786L275.507 313.616L280.667 306.074C282.388 304.353 283.314 301.839 283.446 298.531L279.476 287.813L270.941 268.56L268.957 278.881L266.376 293.767L265.582 299.325L263.598 309.249C262.168 315.23 259.588 320.06 255.857 323.739L254.864 324.334L254.666 324.93C250.669 328.873 245.376 331.52 238.787 332.869L227.275 335.251L227.076 334.259L227.87 331.877L228.267 329.495L231.046 319.174L241.367 277.095L243.947 266.575L245.734 258.04L239.978 256.253L236.008 270.544L226.679 306.074L223.503 317.189C221.81 324.758 218.303 330.514 212.983 334.457C208.934 337.95 203.641 340.2 197.105 341.206L182.417 343.984L182.615 343.389L213.976 251.291L212.19 250.696L207.426 249.902L185.195 311.433L179.836 326.319C177.957 333.306 174.583 338.797 169.713 342.793C165.188 346.869 159.101 349.383 151.453 350.336L139.941 352.718L132.795 354.306L132.597 353.71L181.424 242.955L175.668 240.375L140.338 316.593L131.009 337.038L127.833 343.389C125.98 347.359 123.4 350.601 120.092 353.115C117.101 355.682 113.396 357.534 108.977 358.673L100.243 360.657L76.8218 365.421L76.6235 364.826L151.651 228.664L145.895 225.29L111.954 284.637L101.633 302.898C99.2509 307.794 96.1413 311.962 92.3038 315.402C88.8634 318.578 84.4305 320.762 79.0052 321.953L70.8673 323.342L60.9429 324.533L46.255 326.518L46.8505 325.525L124.657 208.815L121.68 206.235C121.547 205.309 120.886 204.912 119.695 205.044L86.1507 252.879L78.2113 264.788C75.9618 268.493 73.2492 271.735 70.0734 274.514L61.34 279.675L57.9656 280.667L53.0035 281.66L47.0489 282.057L22.8336 283.645L23.0321 283.049L81.784 209.609L96.6705 191.547L100.64 186.386C101.434 186.254 101.765 185.658 101.633 184.6L97.8614 179.638L53.0035 233.626L52.4081 233.824L51.8126 234.817L45.4609 239.581L38.1171 242.558L34.1473 243.352L27.5972 243.55H1L3.97736 240.176L69.2794 171.698L69.8748 171.5L144.307 93.8916C148.7 90.0806 154.126 87.3018 160.583 85.5551L166.141 84.7611L168.126 84.3643Z"
        fill="#B8A57B" stroke="#B8A57B" stroke-width="0.396974" />
</svg>
