<svg width="24" height="18" viewBox="0 0 24 18" fill="none" xmlns="http://www.w3.org/2000/svg">
<path d="M12.0708 0.25C9.72359 0.25 7.8208 2.15279 7.8208 4.5C7.8208 6.84721 9.72359 8.75 12.0708 8.75C14.418 8.75 16.3208 6.84721 16.3208 4.5C16.3208 2.15279 14.418 0.25 12.0708 0.25Z" fill="#1B7683"/>
<path d="M6.88955 2.4079C6.84082 2.3291 6.74597 2.31484 6.55626 2.28631C6.39727 2.26239 6.23451 2.25 6.06885 2.25C4.27392 2.25 2.81885 3.70507 2.81885 5.5C2.81885 7.29493 4.27392 8.75 6.06885 8.75C6.61204 8.75 7.12411 8.61674 7.57415 8.38112C7.74394 8.29223 7.82883 8.24778 7.84918 8.1575C7.86953 8.06721 7.8035 7.97947 7.67143 7.80398C6.97917 6.88407 6.56885 5.73995 6.56885 4.5C6.56885 3.90695 6.66271 3.33583 6.83639 2.80068C6.90432 2.59136 6.93828 2.48671 6.88955 2.4079Z" fill="#1B7683"/>
<path d="M6.79699 10.5903C7.00376 10.4624 7.28512 10.3013 7.57222 10.1474C7.95077 9.94455 8.14005 9.8431 8.1229 9.70677C8.10576 9.57044 7.91181 9.52261 7.5239 9.42696C5.87854 9.02122 4.1165 9.3132 2.63908 10.3029C2.58399 10.3398 2.51229 10.3852 2.42866 10.4381C2.03718 10.686 1.38351 11.0998 0.940025 11.5882C0.659038 11.8976 0.378088 12.3208 0.327022 12.8464C0.272635 13.4061 0.491926 13.9295 0.916489 14.3845C1.48428 14.9931 2.17617 15.5512 3.19998 15.707C3.43922 15.7434 3.55891 15.7616 3.6307 15.6872C3.7025 15.6128 3.67563 15.4709 3.62189 15.1871C3.56819 14.9036 3.55336 14.6051 3.58618 14.2933C3.69245 13.2837 4.26341 12.5497 4.69774 12.1082C5.37076 11.4241 6.30238 10.8795 6.79699 10.5903Z" fill="#1B7683"/>
<path d="M16.2889 8.1575C16.2685 8.06721 16.3345 7.97947 16.4666 7.80397C17.1589 6.88407 17.5692 5.73995 17.5692 4.5C17.5692 3.90695 17.4753 3.33583 17.3017 2.80068C17.2337 2.59136 17.1998 2.48671 17.2485 2.4079C17.2972 2.3291 17.3921 2.31484 17.5818 2.28631C17.7408 2.26239 17.9035 2.25 18.0692 2.25C19.8641 2.25 21.3192 3.70507 21.3192 5.5C21.3192 7.29493 19.8641 8.75 18.0692 8.75C17.526 8.75 17.0139 8.61674 16.5639 8.38112C16.3941 8.29223 16.3092 8.24778 16.2889 8.1575Z" fill="#1B7683"/>
<path d="M17.3411 10.5903C17.1344 10.4624 16.853 10.3013 16.5659 10.1474C16.1874 9.94455 15.9981 9.8431 16.0152 9.70677C16.0324 9.57044 16.2263 9.52261 16.6142 9.42696C18.2596 9.02122 20.0216 9.3132 21.4991 10.3029C21.5541 10.3398 21.6258 10.3852 21.7095 10.4381C22.101 10.686 22.7546 11.0998 23.1981 11.5882C23.4791 11.8976 23.76 12.3208 23.8111 12.8464C23.8655 13.4061 23.6462 13.9295 23.2216 14.3845C22.6539 14.9931 21.962 15.5512 20.9382 15.707C20.6989 15.7434 20.5792 15.7616 20.5074 15.6872C20.4356 15.6128 20.4625 15.4709 20.5162 15.1872C20.5699 14.9037 20.5848 14.6051 20.552 14.2933C20.4457 13.2837 19.8747 12.5497 19.4404 12.1082C18.7674 11.4241 17.8358 10.8795 17.3411 10.5903Z" fill="#1B7683"/>
<path d="M7.76031 11.4733C10.3981 9.84224 13.7438 9.84224 16.3816 11.4733C16.4592 11.5213 16.5576 11.5788 16.6706 11.645C17.1828 11.9447 17.9965 12.4208 18.5514 12.9849C18.8999 13.3391 19.2475 13.8221 19.3109 14.4242C19.3787 15.0683 19.1053 15.6646 18.5837 16.1806C17.7221 17.033 16.6548 17.75 15.2553 17.75H8.88658C7.48712 17.75 6.41979 17.033 5.55816 16.1806C5.0366 15.6646 4.7632 15.0683 4.831 14.4242C4.89437 13.8221 5.24197 13.3391 5.5905 12.9849C6.1454 12.4208 6.95859 11.945 7.47086 11.6452C7.58403 11.579 7.68255 11.5214 7.76031 11.4733Z" fill="#1B7683"/>
</svg>
