<svg width="24" height="18" viewBox="0 0 24 18" fill="none" xmlns="http://www.w3.org/2000/svg">
<path fill-rule="evenodd" clip-rule="evenodd" d="M12.0999 0.25C9.75264 0.25 7.84985 2.15279 7.84985 4.5C7.84985 6.84721 9.75264 8.75 12.0999 8.75C14.4471 8.75 16.3499 6.84721 16.3499 4.5C16.3499 2.15279 14.4471 0.25 12.0999 0.25ZM9.34985 4.5C9.34985 2.98122 10.5811 1.75 12.0999 1.75C13.6186 1.75 14.8499 2.98122 14.8499 4.5C14.8499 6.01878 13.6186 7.25 12.0999 7.25C10.5811 7.25 9.34985 6.01878 9.34985 4.5Z" fill="#6C737F"/>
<path d="M5.5999 2.25C3.80497 2.25 2.3499 3.70507 2.3499 5.5C2.3499 7.29493 3.80497 8.75 5.5999 8.75C6.01411 8.75 6.3499 8.41421 6.3499 8C6.3499 7.58579 6.01411 7.25 5.5999 7.25C4.6334 7.25 3.8499 6.4665 3.8499 5.5C3.8499 4.5335 4.6334 3.75 5.5999 3.75C6.01411 3.75 6.3499 3.41421 6.3499 3C6.3499 2.58579 6.01411 2.25 5.5999 2.25Z" fill="#6C737F"/>
<path d="M5.84685 9.93242C5.80953 9.5199 5.44485 9.21573 5.03232 9.25305C4.09379 9.33796 3.18124 9.69902 2.37695 10.3184C2.33061 10.3541 2.26956 10.3985 2.19784 10.4506C1.85715 10.6985 1.27545 11.1217 0.883438 11.6179C0.632955 11.935 0.398716 12.3499 0.356543 12.8489C0.312376 13.3714 0.487552 13.8791 0.863109 14.3418C1.43796 15.0501 2.22676 15.75 3.32585 15.75C3.74007 15.75 4.07585 15.4142 4.07585 15C4.07585 14.5858 3.74007 14.25 3.32585 14.25C2.92635 14.25 2.52317 14.0069 2.02778 13.3965C1.8556 13.1844 1.84481 13.051 1.85121 12.9752C1.85961 12.8758 1.9125 12.7351 2.06047 12.5477C2.30972 12.2322 2.6591 11.9754 2.99871 11.7258C3.09828 11.6526 3.19701 11.5801 3.29213 11.5068C3.8825 11.0522 4.52716 10.8049 5.16747 10.747C5.58 10.7096 5.88417 10.345 5.84685 9.93242Z" fill="#6C737F"/>
<path d="M18.0999 2.25C17.6856 2.25 17.3499 2.58579 17.3499 3C17.3499 3.41421 17.6856 3.75 18.0999 3.75C19.0664 3.75 19.8499 4.5335 19.8499 5.5C19.8499 6.4665 19.0664 7.25 18.0999 7.25C17.6856 7.25 17.3499 7.58579 17.3499 8C17.3499 8.41421 17.6856 8.75 18.0999 8.75C19.8948 8.75 21.3499 7.29493 21.3499 5.5C21.3499 3.70507 19.8948 2.25 18.0999 2.25Z" fill="#6C737F"/>
<path d="M19.1674 9.25305C18.7549 9.21573 18.3902 9.5199 18.3529 9.93242C18.3156 10.345 18.6197 10.7096 19.0323 10.747C19.6726 10.8049 20.3173 11.0522 20.9076 11.5068C21.0027 11.5801 21.1014 11.6526 21.201 11.7258C21.5406 11.9754 21.89 12.2322 22.1393 12.5477C22.2873 12.7351 22.3401 12.8758 22.3485 12.9752C22.3549 13.051 22.3441 13.1844 22.172 13.3965C21.6766 14.0069 21.2734 14.25 20.8739 14.25C20.4597 14.25 20.1239 14.5858 20.1239 15C20.1239 15.4142 20.4597 15.75 20.8739 15.75C21.973 15.75 22.7618 15.0501 23.3366 14.3418C23.7122 13.8791 23.8874 13.3714 23.8432 12.8489C23.801 12.3499 23.5668 11.935 23.3163 11.6179C22.9243 11.1217 22.3427 10.6986 22.002 10.4507C21.9303 10.3985 21.8691 10.3541 21.8228 10.3184C21.0185 9.69902 20.106 9.33796 19.1674 9.25305Z" fill="#6C737F"/>
<path fill-rule="evenodd" clip-rule="evenodd" d="M7.78936 11.4733C10.4271 9.84224 13.7729 9.84224 16.4106 11.4733C16.4884 11.5214 16.5868 11.579 16.7 11.6452C17.2122 11.9449 18.0255 12.4208 18.5805 12.9849C18.929 13.3391 19.2766 13.8221 19.34 14.4242C19.4078 15.0683 19.1343 15.6646 18.6128 16.1806C17.7512 17.033 16.6838 17.75 15.2844 17.75H8.91563C7.51617 17.75 6.44884 17.033 5.58722 16.1806C5.06565 15.6646 4.79225 15.0683 4.86005 14.4242C4.92343 13.8221 5.27103 13.3391 5.61955 12.9849C6.17445 12.4208 6.98764 11.945 7.49991 11.6452C7.6131 11.579 7.71159 11.5214 7.78936 11.4733ZM15.6218 12.7491C13.4674 11.417 10.7326 11.417 8.57825 12.7491C8.44893 12.8291 8.31026 12.9108 8.16719 12.9952C7.65532 13.297 7.08705 13.6321 6.68884 14.0368C6.44384 14.2859 6.36377 14.4676 6.35181 14.5812C6.34428 14.6527 6.34789 14.8231 6.64218 15.1143C7.37472 15.839 8.08287 16.25 8.91563 16.25H15.2844C16.1171 16.25 16.8253 15.839 17.5578 15.1143C17.8521 14.8231 17.8557 14.6527 17.8482 14.5812C17.8362 14.4676 17.7562 14.2859 17.5112 14.0368C17.1129 13.6321 16.5447 13.297 16.0328 12.9952C15.8898 12.9108 15.7511 12.8291 15.6218 12.7491Z" fill="#6C737F"/>
</svg>
